<svg xmlns="http://www.w3.org/2000/svg" xmlns:xlink="http://www.w3.org/1999/xlink" width="364.557" height="381.412" viewBox="0 0 364.557 381.412"><defs><style>.a{fill:#f3f3f3;}.aa,.ab,.ac,.ad,.b,.c,.d,.e,.f,.g,.h,.i,.j,.k,.l,.m,.n,.o,.p,.q,.r,.s,.t,.u,.v,.y,.z{fill-rule:evenodd;}.b{fill:url(#a);}.c{fill:url(#b);}.d{fill:#e9e9e9;}.e{fill:url(#c);}.f{fill:#d9d9d9;}.g{fill:url(#d);}.h{fill:url(#e);}.i{fill:url(#f);}.j{fill:url(#g);}.k{fill:url(#h);}.l{fill:url(#i);}.m{fill:url(#j);}.n{fill:url(#k);}.o{fill:url(#l);}.p{fill:url(#m);}.q{fill:url(#n);}.r{fill:url(#o);}.s{fill:url(#p);}.t{fill:url(#q);}.ae,.u{fill:#d2d2d2;}.ah,.v{fill:#fff;}.w{fill:url(#r);}.x{fill:#5323d7;}.y{fill:url(#s);}.z{fill:url(#t);}.aa{fill:url(#u);}.ab{fill:url(#v);}.ac{fill:url(#w);}.ad{fill:url(#x);}.af{fill:#eee;}.ag{fill:none;}.ai{font-size:30px;font-family:Graphik-Medium, Graphik;font-weight:500;}</style><radialGradient id="a" cx="0.476" cy="0.486" r="0.346" gradientTransform="matrix(0.856, -0.464, -0.434, -0.856, -0.255, -0.049)" gradientUnits="objectBoundingBox"><stop offset="0" stop-color="#696969" stop-opacity="0.439"/><stop offset="1" stop-color="#d7d7d7" stop-opacity="0"/></radialGradient><linearGradient id="b" x1="-23.453" y1="3.675" x2="-23.403" y2="3.675" gradientUnits="objectBoundingBox"><stop offset="0" stop-color="#f6f6f6"/><stop offset="1" stop-color="#dbdbdb"/></linearGradient><radialGradient id="c" cx="-0.143" cy="0.197" r="3.541" gradientTransform="matrix(0.893, 0.656, 0.962, -0.936, -5.933, 21.086)" gradientUnits="objectBoundingBox"><stop offset="0" stop-color="#fff"/><stop offset="1" stop-color="#c6c6c6"/></radialGradient><radialGradient id="d" cx="0.527" cy="0.356" r="1.321" gradientTransform="matrix(-0.627, -0.646, -0.439, 0.631, -47.784, -17.906)" gradientUnits="objectBoundingBox"><stop offset="0" stop-color="#fff" stop-opacity="0.51"/><stop offset="1" stop-color="#b5b5b5" stop-opacity="0"/></radialGradient><radialGradient id="e" cx="0.441" cy="0.121" r="1.228" gradientTransform="matrix(0.263, 0.94, 0.569, -0.265, -32.71, 48.56)" gradientUnits="objectBoundingBox"><stop offset="0" stop-color="#fff" stop-opacity="0.169"/><stop offset="1" stop-color="#b5b5b5" stop-opacity="0.169"/></radialGradient><radialGradient id="f" cx="0.757" cy="2.039" r="3.65" gradientTransform="matrix(-0.272, -0.646, -0.19, 0.631, -43.753, -17.805)" xlink:href="#d"/><radialGradient id="g" cx="1.891" cy="2.071" r="7.337" gradientTransform="matrix(-0.367, -0.646, -0.257, 0.631, -128.713, -53.283)" xlink:href="#d"/><radialGradient id="h" cx="0.632" cy="2.41" r="5.662" gradientTransform="matrix(-0.112, -0.948, -0.273, 0.264, -35.935, -22.101)" gradientUnits="objectBoundingBox"><stop offset="0" stop-color="#fff"/><stop offset="1" stop-color="#b5b5b5" stop-opacity="0"/></radialGradient><radialGradient id="i" cx="0.632" cy="2.41" r="5.663" gradientTransform="matrix(-0.112, -0.948, -0.273, 0.264, -36.693, -23.542)" xlink:href="#h"/><radialGradient id="j" cx="0.633" cy="2.412" r="5.663" gradientTransform="matrix(-0.112, -0.948, -0.273, 0.264, -36.831, -24.122)" xlink:href="#h"/><radialGradient id="k" cx="-0.027" cy="5.21" r="12.324" gradientTransform="matrix(-0.39, -0.765, -0.269, 0.374, -252.972, -139.155)" xlink:href="#h"/><radialGradient id="l" cx="1.835" cy="3.764" r="11.294" gradientTransform="matrix(-0.152, -0.948, -0.371, 0.264, -104.004, -71.903)" xlink:href="#h"/><radialGradient id="m" cx="0.622" cy="0.759" r="0.205" gradientTransform="matrix(-0.005, -1, -2.147, 0.005, -15.172, -17.037)" gradientUnits="objectBoundingBox"><stop offset="0" stop-color="#c8c8c8" stop-opacity="0.522"/><stop offset="1" stop-color="#d9d9d9" stop-opacity="0"/></radialGradient><linearGradient id="n" x1="-26.304" y1="4.283" x2="-26.247" y2="4.283" gradientUnits="objectBoundingBox"><stop offset="0" stop-color="#eaeaea"/><stop offset="1" stop-color="#fff"/></linearGradient><radialGradient id="o" cx="0.343" cy="1.296" r="4.293" gradientTransform="matrix(-0.007, -0.999, 0.349, -0.138, -78.308, 57.75)" gradientUnits="objectBoundingBox"><stop offset="0" stop-color="#e6e6e6"/><stop offset="1" stop-color="#fff"/></radialGradient><radialGradient id="p" cx="-43.562" cy="76.933" r="0.776" gradientTransform="translate(0.438) scale(0.123 1)" gradientUnits="objectBoundingBox"><stop offset="0" stop-color="#ebebeb"/><stop offset="1" stop-color="#fcfcfc" stop-opacity="0.549"/></radialGradient><radialGradient id="q" cx="0.349" cy="-0.359" r="3.053" gradientTransform="matrix(-0.137, 0.981, 0.492, 0.136, -43.885, 42.61)" xlink:href="#o"/><radialGradient id="r" cx="0.543" cy="0.503" r="0.286" gradientTransform="matrix(0.673, 0.739, 0.739, -0.673, -14.006, 31.693)" gradientUnits="objectBoundingBox"><stop offset="0" stop-color="#5323d7"/><stop offset="1" stop-color="#fff" stop-opacity="0"/></radialGradient><radialGradient id="s" cx="-68.378" cy="71.641" r="0.775" gradientTransform="translate(0.403) scale(0.193 1)" xlink:href="#p"/><radialGradient id="t" cx="-34.611" cy="73.398" r="0.776" gradientTransform="translate(0.451) scale(0.098 1)" xlink:href="#p"/><radialGradient id="u" cx="-80.933" cy="71.653" r="0.776" gradientTransform="translate(0.388) scale(0.225 1)" xlink:href="#p"/><radialGradient id="v" cx="-89.875" cy="75.154" r="0.776" gradientTransform="translate(0.373) scale(0.254 1)" xlink:href="#p"/><radialGradient id="w" cx="-144.283" cy="75.154" r="0.776" gradientTransform="translate(0.299) scale(0.402 1)" xlink:href="#p"/><radialGradient id="x" cx="-145.556" cy="75.154" r="0.776" gradientTransform="translate(0.299) scale(0.402 1)" xlink:href="#p"/></defs><g transform="translate(0 -2029.348)"><g transform="translate(0 2029.348)"><circle class="a" cx="85.243" cy="85.243" r="85.243" transform="translate(83.739 245.133) rotate(-88.841)"/><path class="b" d="M347.139,318.444l51.39-219.213L259.684,17.892,142.93,23.22,61.311,71.866,33.972,149.14,82.988,309.834l38.6,37.371L205.7,370.46Z" transform="translate(-33.972 -17.892)"/><path class="c" d="M307.592,138.074l-.209-.372-57.366-16.174a4.658,4.658,0,0,0-5.749,3.219L207.719,254.383a4.658,4.658,0,0,0,3.219,5.749l85.619,24.136a4.654,4.654,0,0,0,5.749-3.218l28.563-101.3-28-7.894a4.621,4.621,0,0,1-3.194-5.7Z" transform="translate(-64.984 -36.377)"/><path class="d" d="M350.859,183.3l-.023.082-28.613-8.067a3.979,3.979,0,0,1-2.751-4.91l8.092-28.7Z" transform="translate(-84.955 -40.015)"/><path class="e" d="M174.483,132.808l-.371-.21L116.654,148.45a4.656,4.656,0,0,0-3.251,5.727l35.81,129.843a4.656,4.656,0,0,0,5.727,3.251l85.754-23.654a4.653,4.653,0,0,0,3.252-5.727L215.965,156.423l-28.041,7.734a4.622,4.622,0,0,1-5.684-3.227Z" transform="translate(-48.134 -38.386)"/><path class="f" d="M224.889,136.1l.04.075-26.246,13.963a3.979,3.979,0,0,1-5.382-1.643l-14-26.324Z" transform="translate(-59.938 -36.523)"/><path class="g" d="M223.432,176.845a4.78,4.78,0,0,0-5.889-3.32l-70.816,19.754a4.78,4.78,0,0,0-3.321,5.889l13.306,47.711a4.78,4.78,0,0,0,5.889,3.32l70.817-19.754a4.78,4.78,0,0,0,3.32-5.889Z" transform="translate(-53.493 -45.667)"/><path class="h" d="M305.991,250.233a4.78,4.78,0,0,0-3.306-5.9L242.8,227.472a4.781,4.781,0,0,0-5.9,3.306l-9.868,35.041a4.779,4.779,0,0,0,3.306,5.9l59.882,16.864a4.781,4.781,0,0,0,5.9-3.306Z" transform="translate(-68.435 -55.305)"/><path class="i" d="M209.259,140.453a3.959,3.959,0,0,0-4.89-2.728l-70.278,19.954a3.959,3.959,0,0,0-2.728,4.89h0a3.959,3.959,0,0,0,4.89,2.727l70.279-19.958a3.96,3.96,0,0,0,2.728-4.89Z" transform="translate(-51.346 -39.275)"/><path class="j" d="M165.554,174.682a3.959,3.959,0,0,0-4.889-2.727L139.721,177.9a3.959,3.959,0,0,0-2.728,4.89h0a3.96,3.96,0,0,0,4.89,2.728l20.944-5.946a3.959,3.959,0,0,0,2.727-4.889Z" transform="translate(-52.352 -45.391)"/><path class="k" d="M295.431,148.685a3.959,3.959,0,0,0-2.765-4.869L222.239,124.4a3.959,3.959,0,0,0-4.87,2.77h0a3.96,3.96,0,0,0,2.765,4.869l70.429,19.419A3.959,3.959,0,0,0,295.431,148.685Z" transform="translate(-66.714 -36.896)"/><path class="l" d="M321.487,201.029a3.958,3.958,0,0,0-2.765-4.869l-70.428-19.42a3.96,3.96,0,0,0-4.87,2.764h0a3.958,3.958,0,0,0,2.765,4.869l70.428,19.42a3.96,3.96,0,0,0,4.87-2.765Z" transform="translate(-71.369 -46.248)"/><path class="m" d="M310.781,232.506a3.96,3.96,0,0,0-2.765-4.869l-70.428-19.419a3.959,3.959,0,0,0-4.87,2.764h0a3.959,3.959,0,0,0,2.765,4.869l70.428,19.419a3.957,3.957,0,0,0,4.869-2.764Z" transform="translate(-69.456 -51.872)"/><path class="n" d="M328.963,220.274A3.959,3.959,0,0,0,326.2,215.4l-9.431-2.6a3.959,3.959,0,0,0-4.869,2.764h0a3.959,3.959,0,0,0,2.765,4.869l9.431,2.6a3.957,3.957,0,0,0,4.869-2.764Z" transform="translate(-83.603 -52.691)"/><path class="o" d="M301.959,167.495a3.959,3.959,0,0,0-2.765-4.869L278.21,156.84a3.959,3.959,0,0,0-4.869,2.765h0a3.96,3.96,0,0,0,2.765,4.869l20.986,5.787a3.959,3.959,0,0,0,4.869-2.765Z" transform="translate(-76.714 -42.692)"/><path class="p" d="M247.5,75.543l-.456-.456h-92.5a4.658,4.658,0,0,0-4.657,4.656V288.166a4.657,4.657,0,0,0,4.657,4.657H293.811a4.656,4.656,0,0,0,4.655-4.656V126.64H252.118a4.622,4.622,0,0,1-4.622-4.622Z" transform="translate(-54.681 -28.111)"/><path class="q" d="M246.894,121.629l-.329-.329H181.04a4.656,4.656,0,0,0-4.656,4.657V273.915a4.656,4.656,0,0,0,4.657,4.657h98.01a4.658,4.658,0,0,0,4.658-4.657V158.537h-32.2a4.622,4.622,0,0,1-4.622-4.622Z" transform="translate(-59.417 -36.368)"/><path class="r" d="M255.154,140.723a4.147,4.147,0,0,1-4.147,4.147H197.949a4.147,4.147,0,0,1-4.146-4.146h0a4.146,4.146,0,0,1,4.146-4.146h53.058a4.146,4.146,0,0,1,4.147,4.147Z" transform="translate(-62.529 -39.097)"/><path class="s" d="M257.672,158.923a3.958,3.958,0,0,0-3.96-3.959H197.295a3.959,3.959,0,0,0-3.959,3.958h0a3.958,3.958,0,0,0,3.96,3.959h56.418a3.956,3.956,0,0,0,3.959-3.959Z" transform="translate(-62.446 -42.383)"/><path class="f" d="M299.046,158.515v.093H266.211a3.979,3.979,0,0,1-3.979-3.979V121.7Z" transform="translate(-74.755 -36.439)"/><path class="t" d="M274.341,229.86a4.78,4.78,0,0,0-4.781-4.781H196.041a4.78,4.78,0,0,0-4.78,4.781v49.534a4.78,4.78,0,0,0,4.78,4.78h73.52a4.78,4.78,0,0,0,4.78-4.78Z" transform="translate(-62.075 -54.91)"/><path class="u" d="M246.113,249.867a.8.8,0,0,1,1.381,0l10.7,18.287a.8.8,0,0,1-.691,1.2H236.1a.8.8,0,0,1-.69-1.2Z" transform="translate(-69.943 -59.268)"/><path class="v" d="M230.354,243.867a.8.8,0,0,1,1.381,0l13.571,23.184a.8.8,0,0,1-.69,1.2H217.474a.8.8,0,0,1-.691-1.2C219.3,262.744,227.856,248.134,230.354,243.867Z" transform="translate(-66.615 -58.196)"/><circle class="w" cx="51.687" cy="51.687" r="51.687" transform="translate(114.378 180.457)"/><circle class="x" cx="24.763" cy="24.763" r="24.763" transform="translate(145.278 200.652)"/><path class="y" d="M234.323,209.8a3.96,3.96,0,0,0-3.959-3.96H197.295a3.958,3.958,0,0,0-3.959,3.96h0a3.958,3.958,0,0,0,3.959,3.96h33.069a3.959,3.959,0,0,0,3.959-3.959Z" transform="translate(-62.446 -51.472)"/><path class="z" d="M274.309,192.928a3.958,3.958,0,0,0-3.96-3.959H197.294a3.958,3.958,0,0,0-3.96,3.959h0a3.96,3.96,0,0,0,3.96,3.96h73.053a3.96,3.96,0,0,0,3.96-3.96Z" transform="translate(-62.445 -48.458)"/><path class="aa" d="M284.942,209.822a3.959,3.959,0,0,0-3.959-3.959H253.7a3.96,3.96,0,0,0-3.96,3.959h0a3.958,3.958,0,0,0,3.96,3.959h27.28a3.958,3.958,0,0,0,3.96-3.959Z" transform="translate(-72.523 -51.477)"/><path class="ab" d="M224.517,176.07a3.958,3.958,0,0,0-3.96-3.959H197.3a3.958,3.958,0,0,0-3.96,3.959h0a3.959,3.959,0,0,0,3.959,3.959H220.56a3.96,3.96,0,0,0,3.96-3.959Z" transform="translate(-62.446 -45.446)"/><path class="ac" d="M257.607,176.07a3.959,3.959,0,0,0-3.959-3.959H241.888a3.959,3.959,0,0,0-3.959,3.959h0a3.959,3.959,0,0,0,3.959,3.959h11.761A3.959,3.959,0,0,0,257.607,176.07Z" transform="translate(-70.413 -45.446)"/><path class="ad" d="M288.12,176.07a3.959,3.959,0,0,0-3.959-3.959H272.4a3.959,3.959,0,0,0-3.959,3.959h0a3.959,3.959,0,0,0,3.959,3.959h11.761a3.959,3.959,0,0,0,3.959-3.959Z" transform="translate(-75.865 -45.446)"/><circle class="ae" cx="4.296" cy="4.296" r="4.296" transform="translate(181.677 185.181)"/><circle class="x" cx="8.92" cy="8.92" r="8.92" transform="translate(253.926 73.328)"/><circle class="x" cx="3.845" cy="3.845" r="3.845" transform="translate(86.235 87.932)"/><circle class="af" cx="4.221" cy="4.221" r="4.221" transform="translate(262.596 101.748)"/><circle class="af" cx="7.468" cy="7.468" r="7.468" transform="translate(203.445 252.171)"/><ellipse class="af" cx="3.386" cy="3.735" rx="3.386" ry="3.735" transform="translate(191.52 252.696)"/><circle class="af" cx="2.622" cy="2.622" r="2.622" transform="translate(75.082 100.875)"/><g transform="translate(158.278 213.652)"><path class="ag" d="M0,0H24V24H0Z"/><path class="ah" d="M12,20.9l4.95-4.95a7,7,0,1,0-9.9,0Zm0,2.828L5.636,17.364a9,9,0,1,1,12.728,0ZM12,13a2,2,0,1,0-2-2A2,2,0,0,0,12,13Zm0,2a4,4,0,1,1,4-4A4,4,0,0,1,12,15Z"/></g></g><text class="ai" transform="translate(181.999 2405.76)"><tspan x="-119.22" y="0">Proof of Address</tspan></text></g></svg>