<svg xmlns="http://www.w3.org/2000/svg" xmlns:xlink="http://www.w3.org/1999/xlink" width="250.132" height="258.724" viewBox="0 0 250.132 258.724"><defs><style>.a{fill:none;}.b{fill:#f7f7f7;}.b,.d,.e,.f,.g,.j,.k,.l,.m,.p,.r,.u,.v,.x{fill-rule:evenodd;}.c{fill:url(#a);}.d{fill:url(#b);}.e,.t{fill:#5323d7;}.f{fill:url(#c);}.g{fill:#f5f5f5;}.h{fill:#e7e7e7;}.i{fill:url(#d);}.j{fill:#ececec;}.k{fill:url(#e);}.l,.n{fill:#d2d2d2;}.m,.o{fill:#fff;}.p{fill:#ebebeb;}.q{fill:#d9d9d9;}.r{fill:#d6caf6;}.s{clip-path:url(#f);}.u{fill:rgba(83,35,215,0.79);}.v,.w{fill:#f8f8f8;}.x{fill:#f4f4f4;}</style><radialGradient id="a" cx="0.511" cy="0.487" r="0.404" gradientTransform="matrix(0.908, -0.479, -0.513, -0.908, 1.368, 3.977)" gradientUnits="objectBoundingBox"><stop offset="0" stop-color="#bbb" stop-opacity="0.871"/><stop offset="1" stop-color="#fff" stop-opacity="0"/></radialGradient><linearGradient id="b" x1="-38.739" y1="26.355" x2="-38.673" y2="26.355" gradientUnits="objectBoundingBox"><stop offset="0" stop-color="#f8f8f8"/><stop offset="1" stop-color="#d6d6d6"/></linearGradient><linearGradient id="c" x1="-16.232" y1="13.515" x2="-16.203" y2="13.515" gradientUnits="objectBoundingBox"><stop offset="0" stop-color="#fcfcfc"/><stop offset="1" stop-color="#d2d2d2"/></linearGradient><radialGradient id="d" cx="0.395" cy="1.056" r="5.465" gradientTransform="matrix(0.54, -0.67, -0.435, -0.663, -3.705, 7.474)" gradientUnits="objectBoundingBox"><stop offset="0" stop-color="#fbfbfb"/><stop offset="1" stop-color="#e9e9e9"/></radialGradient><radialGradient id="e" cx="0.923" cy="-0.473" r="4.206" gradientTransform="matrix(-0.457, 0.629, 0.254, 0.535, -95.198, 56.065)" gradientUnits="objectBoundingBox"><stop offset="0" stop-color="#e6e6e6"/><stop offset="1" stop-color="#fff"/></radialGradient><clipPath id="f"><rect class="a" width="24.944" height="3.63" rx="1.815"/></clipPath></defs><g transform="translate(-14.296 -0.962)"><path class="b" d="M172.884,106.6a18.387,18.387,0,0,1,22.39,0c15.847,12.16,44.585,34.215,59.829,45.919a18.381,18.381,0,0,1,6.377,19.992c-5.882,19.129-17.225,56-23.252,75.593a18.387,18.387,0,0,1-17.575,12.98H147.5A18.385,18.385,0,0,1,129.93,248.1c-6.029-19.595-17.369-56.466-23.252-75.594a18.39,18.39,0,0,1,6.38-19.99C128.3,140.814,157.04,118.759,172.884,106.6Z" transform="translate(-39.891 -44.363)"/><rect class="c" width="250.132" height="258.724" transform="translate(14.296 0.962)"/><path class="d" d="M247.253,317.071l-44.629-.347s-.484,10.337-.484,17.7c0,5.443-4.335,14.335-6.4,18.271a1.355,1.355,0,0,0,1.2,1.975c9.505.012,45.993.033,55.436.039a1.36,1.36,0,0,0,1.216-1.969c-1.909-3.752-5.775-12.058-5.775-17.529C247.811,327.852,247.253,317.071,247.253,317.071Z" transform="translate(-78.976 -137.557)"/><path class="e" d="M261.329,140.248a4.9,4.9,0,0,0-4.91-4.905H120.605a4.9,4.9,0,0,0-4.905,4.905v84.063H261.329Z" transform="translate(-44.175 -58.541)"/><path class="f" d="M259.855,146.508a.938.938,0,0,0-.94-.938H125.408a.937.937,0,0,0-.937.938V221.56a1.334,1.334,0,0,0,1.334,1.334H258.524a1.334,1.334,0,0,0,1.334-1.334Z" transform="translate(-47.996 -62.996)"/><path class="g" d="M261.453,292.531H115.681v17.947a2.842,2.842,0,0,0,2.841,2.84H258.611a2.842,2.842,0,0,0,2.842-2.84Z" transform="translate(-44.167 -127.018)"/><circle class="h" cx="4.193" cy="4.193" r="4.193" transform="translate(142.599 171.541)"/><rect class="i" width="109.715" height="79.801" transform="translate(89.539 80.096)"/><path class="j" d="M147.619,133.453H257.335v-8.222a4.168,4.168,0,0,0-1.132-2.874,3.745,3.745,0,0,0-2.725-1.193h-102a3.751,3.751,0,0,0-2.728,1.193,4.177,4.177,0,0,0-1.129,2.874Z" transform="translate(-58.08 -52.364)"/><path class="k" d="M300.681,237.26a2.987,2.987,0,0,0-2.988-2.987H263.285a2.987,2.987,0,0,0-2.987,2.988V255a2.987,2.987,0,0,0,2.988,2.987h34.408A2.987,2.987,0,0,0,300.681,255Z" transform="translate(-107.167 -101.638)"/><path class="l" d="M296.457,251.238a.5.5,0,0,1,.862,0l3.985,6.807a.5.5,0,0,1-.431.752H292.9a.5.5,0,0,1-.431-.752Z" transform="translate(-121.154 -108.921)"/><path class="m" d="M286.728,247.733a.5.5,0,0,1,.863,0l5.136,8.773a.5.5,0,0,1-.431.752H282.024a.5.5,0,0,1-.431-.752Z" transform="translate(-116.414 -107.394)"/><circle class="n" cx="1.724" cy="1.724" r="1.724" transform="translate(177.668 139.878)"/><circle class="o" cx="1.786" cy="1.786" r="1.786" transform="translate(97.717 73.278)"/><circle class="o" cx="1.786" cy="1.786" r="1.786" transform="translate(103.124 73.278)"/><circle class="o" cx="1.786" cy="1.786" r="1.786" transform="translate(108.593 73.278)"/><path class="p" d="M210.751,157.658a1.887,1.887,0,0,0-1.887-1.887H163.9a1.887,1.887,0,0,0-1.887,1.887v23.026a1.887,1.887,0,0,0,1.887,1.887h44.968a1.887,1.887,0,0,0,1.887-1.887Z" transform="translate(-64.348 -67.44)"/><rect class="q" width="14.76" height="1.707" transform="translate(103.24 106.839) rotate(-35.179)"/><rect class="q" width="1.707" height="14.76" transform="translate(115.496 98.928) rotate(-48.204)"/><rect class="q" width="14.76" height="1.707" transform="translate(127.56 106.007) rotate(-38.075)"/><path class="e" d="M175.205,185.658a1.161,1.161,0,0,0-1.163-1.163h-2.765a1.164,1.164,0,0,0-1.165,1.163v2.765a1.165,1.165,0,0,0,1.165,1.163h2.765a1.162,1.162,0,0,0,1.163-1.163Z" transform="translate(-67.879 -79.953)"/><path class="e" d="M194.686,171.535a1.162,1.162,0,0,0-1.163-1.163h-2.765a1.165,1.165,0,0,0-1.165,1.163V174.3a1.164,1.164,0,0,0,1.165,1.163h2.765a1.161,1.161,0,0,0,1.163-1.163Z" transform="translate(-76.365 -73.801)"/><path class="e" d="M214.678,184.957a1.162,1.162,0,0,0-1.163-1.163H210.75a1.165,1.165,0,0,0-1.165,1.163v2.765a1.164,1.164,0,0,0,1.165,1.163h2.765a1.161,1.161,0,0,0,1.163-1.163Z" transform="translate(-85.075 -79.648)"/><path class="e" d="M238.282,167.063a1.162,1.162,0,0,0-1.163-1.163h-2.765a1.164,1.164,0,0,0-1.165,1.163v2.765a1.165,1.165,0,0,0,1.165,1.163h2.765a1.162,1.162,0,0,0,1.163-1.163Z" transform="translate(-95.357 -71.853)"/><path class="r" d="M299.969,212.444a1.814,1.814,0,0,0-1.814-1.814H260.677a1.814,1.814,0,0,0-1.815,1.814h0a1.815,1.815,0,0,0,1.815,1.814h37.477a1.814,1.814,0,0,0,1.814-1.814Z" transform="translate(-106.541 -91.339)"/><g class="s" transform="translate(168.482 119.291)"><rect class="t" width="24.967" height="3.632" transform="translate(-0.001 -0.002)"/></g><path class="r" d="M299.969,222.127a1.814,1.814,0,0,0-1.814-1.815H260.677a1.815,1.815,0,0,0-1.815,1.815h0a1.814,1.814,0,0,0,1.815,1.814h37.477a1.814,1.814,0,0,0,1.814-1.814Z" transform="translate(-106.541 -95.557)"/><path class="e" d="M320.284,222.127a1.814,1.814,0,0,0-1.814-1.815H307.308a1.815,1.815,0,0,0-1.814,1.815h0a1.814,1.814,0,0,0,1.814,1.814h11.16a1.813,1.813,0,0,0,1.814-1.814Z" transform="translate(-126.856 -95.556)"/><path class="u" d="M268.783,185.041a1.467,1.467,0,0,0-1.467-1.467h-6.787a1.467,1.467,0,0,0-1.467,1.467v9.274h9.723Z" transform="translate(-106.628 -79.552)"/><path class="u" d="M296.494,171.107a1.467,1.467,0,0,0-1.467-1.467h-6.79a1.467,1.467,0,0,0-1.467,1.467v17.138h9.725Z" transform="translate(-118.699 -73.482)"/><path class="u" d="M324.986,161.893a1.467,1.467,0,0,0-1.467-1.467h-6.787a1.467,1.467,0,0,0-1.467,1.467v22.338h9.722Z" transform="translate(-131.112 -69.468)"/><path class="p" d="M211.089,212.961a1.8,1.8,0,0,0-1.8-1.8H164.12a1.8,1.8,0,0,0-1.8,1.8v38.6h48.771Z" transform="translate(-64.484 -91.569)"/><path class="v" d="M201.187,220.606a1.147,1.147,0,0,0-1.146-1.146H176.926a1.147,1.147,0,0,0-1.147,1.146h0a1.147,1.147,0,0,0,1.147,1.146h23.118a1.147,1.147,0,0,0,1.146-1.146Z" transform="translate(-70.348 -95.185)"/><path class="v" d="M204.513,227.73a1.147,1.147,0,0,0-1.147-1.146h-7.528a1.146,1.146,0,0,0-1.146,1.146h0a1.146,1.146,0,0,0,1.146,1.146h7.528A1.147,1.147,0,0,0,204.513,227.73Z" transform="translate(-78.587 -98.289)"/><path class="v" d="M193.949,234.475a1.146,1.146,0,0,0-1.147-1.146h-9.876a1.144,1.144,0,0,0-1.147,1.146h0a1.15,1.15,0,0,0,1.147,1.146H192.8a1.15,1.15,0,0,0,1.147-1.146Z" transform="translate(-72.961 -101.227)"/><path class="v" d="M177.108,241.827a1.146,1.146,0,0,0-1.147-1.146h-5.382a1.146,1.146,0,0,0-1.147,1.146h0a1.146,1.146,0,0,0,1.147,1.146h5.382a1.146,1.146,0,0,0,1.147-1.146Z" transform="translate(-67.583 -104.43)"/><path class="v" d="M201.585,241.827a1.146,1.146,0,0,0-1.146-1.146H187.4a1.146,1.146,0,0,0-1.147,1.146h0a1.146,1.146,0,0,0,1.147,1.146h13.04A1.146,1.146,0,0,0,201.585,241.827Z" transform="translate(-74.91 -104.43)"/><path class="v" d="M217.952,234.475a1.145,1.145,0,0,0-1.147-1.146h-9.876a1.144,1.144,0,0,0-1.146,1.146h0a1.15,1.15,0,0,0,1.146,1.146h9.876A1.15,1.15,0,0,0,217.952,234.475Z" transform="translate(-83.418 -101.227)"/><circle class="t" cx="1.113" cy="1.113" r="1.113" transform="translate(101.825 124.365)"/><circle class="w" cx="1.113" cy="1.113" r="1.113" transform="translate(105.66 128.314)"/><circle class="w" cx="1.113" cy="1.113" r="1.113" transform="translate(109.062 128.314)"/><circle class="w" cx="1.113" cy="1.113" r="1.113" transform="translate(112.404 128.314)"/><path class="v" d="M176.251,249.229a1.147,1.147,0,0,0,1.147,1.146h7.528a1.147,1.147,0,0,0,1.147-1.146v0a1.147,1.147,0,0,0-1.147-1.146H177.4a1.147,1.147,0,0,0-1.147,1.146Z" transform="translate(-70.553 -107.654)"/><path class="v" d="M215.329,249.229a1.147,1.147,0,0,0,1.147,1.146H224a1.147,1.147,0,0,0,1.147-1.146v0A1.147,1.147,0,0,0,224,248.081h-7.528a1.147,1.147,0,0,0-1.147,1.146Z" transform="translate(-87.577 -107.654)"/><path class="x" d="M169.164,267.181a1.433,1.433,0,0,0,1.431,1.437h39.253a1.432,1.432,0,0,0,1.43-1.437V257.15a1.432,1.432,0,0,0-1.43-1.437H170.6a1.433,1.433,0,0,0-1.431,1.437Z" transform="translate(-67.466 -110.978)"/><path class="v" d="M239.749,249.336a1.145,1.145,0,0,1-1.146,1.146h-3.242a1.145,1.145,0,0,1-1.147-1.146v0a1.15,1.15,0,0,1,1.147-1.146H238.6a1.15,1.15,0,0,1,1.146,1.146Z" transform="translate(-95.804 -107.7)"/><circle class="w" cx="1.113" cy="1.113" r="1.113" transform="translate(123.737 140.476)"/><circle class="t" cx="1.113" cy="1.113" r="1.113" transform="translate(120.334 140.476)"/><circle class="w" cx="1.113" cy="1.113" r="1.113" transform="translate(116.992 140.476)"/><circle class="t" cx="1.113" cy="1.113" r="1.113" transform="translate(128.832 136.223)"/><circle class="w" cx="1.113" cy="1.113" r="1.113" transform="translate(132.174 136.223)"/><path class="e" d="M362.515,86.121a1.484,1.484,0,0,0-.5-1.111,1.467,1.467,0,0,0-1.168-.353,11.675,11.675,0,1,0,13.217,13.233,1.454,1.454,0,0,0-1.446-1.652c-2.319-.018-6.627-.018-8.792-.018a1.308,1.308,0,0,1-1.31-1.31Z" transform="translate(-146.608 -36.454)"/><path class="p" d="M386.045,92.931a.656.656,0,0,0,.479-.205.64.64,0,0,0,.18-.485,10.934,10.934,0,0,0-10.1-10.2.751.751,0,0,0-.8.748c0,1.956,0,7.069,0,9.2a.945.945,0,0,0,.949.949Z" transform="translate(-157.483 -35.318)"/></g></svg>