<svg xmlns="http://www.w3.org/2000/svg" xmlns:xlink="http://www.w3.org/1999/xlink" width="349.469" height="253.814" viewBox="0 0 349.469 253.814"><defs><style>.a{fill:#f7f7f7;}.b{fill:url(#a);}.aa,.c,.d,.e,.f,.h,.i,.m,.n,.o,.q,.s,.t,.u,.v,.w,.y,.z{fill-rule:evenodd;}.c{fill:url(#b);}.d{fill:url(#c);}.e,.g{fill:#d2d2d2;}.f,.j{fill:#fff;}.h{fill:#f4f4f4;}.i,.l{fill:#ececec;}.k{fill:none;}.m{fill:#d6caf6;}.n{fill:url(#d);}.o,.x{fill:#5323d7;}.p{fill:#ac91f3;}.q{fill:#ebebeb;}.r{fill:#d9d9d9;}.s{fill:url(#e);}.t{fill:url(#f);}.u{fill:url(#g);}.v{fill:url(#h);}.w{fill:url(#i);}.y{stroke:#5323d7;stroke-linejoin:round;stroke-width:0.079px;fill:url(#j);}.z{fill:#f0f0f0;}.aa{fill:url(#k);}</style><radialGradient id="a" cx="0.591" cy="0.54" r="0.583" gradientTransform="matrix(0.726, 0.037, 0.02, -0.726, -1.747, -1.167)" gradientUnits="objectBoundingBox"><stop offset="0" stop-color="#898989" stop-opacity="0.522"/><stop offset="1" stop-color="#fff" stop-opacity="0"/></radialGradient><radialGradient id="b" cx="-0.024" cy="0.008" r="10.693" gradientTransform="matrix(0.009, 1, 0.279, -0.009, -12.663, 10.81)" gradientUnits="objectBoundingBox"><stop offset="0" stop-color="#fcfcfc"/><stop offset="1" stop-color="#fff" stop-opacity="0.729"/></radialGradient><radialGradient id="c" cx="0.899" cy="-0.484" r="4.455" gradientTransform="matrix(-0.423, 0.623, 0.229, 0.53, -66.392, 26.633)" gradientUnits="objectBoundingBox"><stop offset="0" stop-color="#e6e6e6"/><stop offset="1" stop-color="#fff"/></radialGradient><radialGradient id="d" cx="0.052" cy="0.943" r="3.428" gradientTransform="matrix(0.984, -0.045, -0.044, -0.984, -0.866, -10.827)" gradientUnits="objectBoundingBox"><stop offset="0" stop-color="#5323d7"/><stop offset="1" stop-color="#5323d7"/></radialGradient><radialGradient id="e" cx="0.992" cy="1.129" r="177.524" gradientTransform="matrix(0, -1, -0.071, 0, -450.99, -530.346)" gradientUnits="objectBoundingBox"><stop offset="0" stop-color="#f5f5f5"/><stop offset="1" stop-color="#eaeaea"/></radialGradient><radialGradient id="f" cx="0.992" cy="1.162" r="177.504" gradientTransform="matrix(0, -1, -0.071, 0, -453.041, -531.034)" xlink:href="#e"/><radialGradient id="g" cx="0.992" cy="1.195" r="177.505" gradientTransform="matrix(0, -1, -0.071, 0, -455.375, -534.856)" xlink:href="#e"/><radialGradient id="h" cx="0.992" cy="1.323" r="177.525" gradientTransform="matrix(0, -1, -0.071, 0, -457.901, -535.671)" xlink:href="#e"/><radialGradient id="i" cx="-44.539" cy="-10.038" r="0.143" gradientTransform="translate(0.225) scale(0.55 1)" xlink:href="#e"/><linearGradient id="j" x1="-28.552" y1="-8.371" x2="-28.502" y2="-8.371" gradientUnits="objectBoundingBox"><stop offset="0" stop-color="#ff69ce"/><stop offset="1" stop-color="#5323d7"/></linearGradient><radialGradient id="k" cx="-0.111" cy="-0.151" r="4.781" gradientTransform="matrix(0.351, 0.936, 0.936, -0.351, 0.069, -0.1)" gradientUnits="objectBoundingBox"><stop offset="0" stop-color="#5323d7"/><stop offset="1" stop-color="#ee00ab"/></radialGradient></defs><g transform="translate(89.155 -41.638)"><circle class="a" cx="66.308" cy="66.308" r="66.308" transform="translate(38.424 233.829) rotate(-88.854)"/><rect class="b" width="349.469" height="253.814" transform="translate(-89.155 41.638)"/><path class="c" d="M254.633,182.357H76.014v88.694a5.6,5.6,0,0,0,5.6,5.6H249.035a5.6,5.6,0,0,0,5.6-5.6Z" transform="translate(-60.605 -51.633)"/><path class="d" d="M308.014,205.7a3.35,3.35,0,0,0-3.355-3.35H257.385a3.35,3.35,0,0,0-3.351,3.351v22.486a3.35,3.35,0,0,0,3.351,3.35h47.274a3.35,3.35,0,0,0,3.35-3.35Z" transform="translate(-125.925 -58.967)"/><path class="e" d="M296.971,220.935a.56.56,0,0,1,.976,0c1.095,1.935,3.731,6.6,4.811,8.509a.561.561,0,0,1-.488.837h-9.618a.561.561,0,0,1-.488-.837Z" transform="translate(-139.889 -65.684)"/><path class="f" d="M286.817,217.09a.56.56,0,0,1,.976,0l6.177,10.928a.56.56,0,0,1-.488.836H281.128a.56.56,0,0,1-.488-.836Z" transform="translate(-135.66 -64.273)"/><ellipse class="g" cx="2.049" cy="2.121" rx="2.049" ry="2.121" transform="translate(159.87 152.294)"/><path class="h" d="M125.175,283.212a1.486,1.486,0,0,0-1.486-1.485H111.5a1.485,1.485,0,0,0-1.485,1.485h0A1.485,1.485,0,0,0,111.5,284.7h12.185A1.486,1.486,0,0,0,125.175,283.212Z" transform="translate(-73.082 -88.095)"/><path class="h" d="M125.175,283.212a1.486,1.486,0,0,0-1.486-1.485H111.5a1.485,1.485,0,0,0-1.485,1.485h0A1.485,1.485,0,0,0,111.5,284.7h12.185A1.486,1.486,0,0,0,125.175,283.212Z" transform="translate(-73.082 -88.095)"/><path class="i" d="M76.109,173.4H254.726V162.472a5.6,5.6,0,0,0-5.6-5.6H81.707a5.6,5.6,0,0,0-5.6,5.6Z" transform="translate(-60.639 -42.283)"/><ellipse class="j" cx="24.015" cy="23.666" rx="24.015" ry="23.666" transform="translate(162.146 101.944)"/><path class="k" d="M331.814,136.9A23.668,23.668,0,1,1,307.8,160.564,23.853,23.853,0,0,1,331.814,136.9Zm0,8.245a15.426,15.426,0,1,1-15.771,15.421,15.606,15.606,0,0,1,15.771-15.421Z" transform="translate(-145.653 -34.954)"/><path class="k" d="M349.537,128.476A10.175,10.175,0,0,0,339.361,118.3h0a10.173,10.173,0,0,0-10.175,10.176v1.673h20.35Z" transform="translate(-153.5 -28.129)"/><ellipse class="l" cx="1.659" cy="1.635" rx="1.659" ry="1.635" transform="translate(183.92 105.491)"/><ellipse class="l" cx="1.659" cy="1.635" rx="1.659" ry="1.635" transform="translate(202.691 123.99)"/><ellipse class="l" cx="1.659" cy="1.635" rx="1.659" ry="1.635" transform="translate(197.579 111.298)"/><path class="m" d="M367.488,161.994a21.847,21.847,0,0,0-21.848-21.847h-.867V162h22.715Z" transform="translate(-159.219 -36.145)"/><path class="k" d="M367.488,162a21.849,21.849,0,0,0-21.847-21.849h-.867V162ZM353.02,150.569v3.182h3.44a13.052,13.052,0,0,0-1.2-1.376A13.424,13.424,0,0,0,353.02,150.569Z" transform="translate(-159.219 -36.145)"/><path class="k" d="M320.106,206.986a4.139,4.139,0,1,1-4.2,4.138A4.139,4.139,0,0,1,320.106,206.986Zm0,8.245a4.106,4.106,0,1,1,4.045-4.106A4.106,4.106,0,0,1,320.106,215.23Z" transform="translate(-148.627 -60.67)"/><path class="n" d="M328.464,128.67a28.591,28.591,0,1,1-29.009,28.588A28.816,28.816,0,0,1,328.464,128.67Zm0,8.245A20.348,20.348,0,1,1,307.7,157.258,20.567,20.567,0,0,1,328.464,136.915Z" transform="translate(-142.591 -31.934)"/><ellipse class="l" cx="1.659" cy="1.635" rx="1.659" ry="1.635" transform="translate(183.92 142.49)"/><ellipse class="l" cx="1.659" cy="1.635" rx="1.659" ry="1.635" transform="translate(165.151 123.99)"/><ellipse class="l" cx="1.659" cy="1.635" rx="1.659" ry="1.635" transform="translate(170.262 136.682)"/><ellipse class="l" cx="1.659" cy="1.635" rx="1.659" ry="1.635" transform="translate(196.801 137.45)"/><ellipse class="l" cx="1.659" cy="1.635" rx="1.659" ry="1.635" transform="translate(171.046 110.53)"/><path class="o" d="M342.693,157.01a.86.86,0,0,1,1.706,0c.633,5.006,1.388,10.967,1.388,10.967H341.3Z" transform="translate(-157.945 -42.056)"/><path class="k" d="M343.149,151.537a.4.4,0,0,1,.793,0c.643,5.086,1.845,14.58,1.845,14.58H341.3S342.5,156.622,343.149,151.537Z" transform="translate(-157.945 -40.196)"/><ellipse class="p" cx="2.937" cy="2.915" rx="2.937" ry="2.915" transform="translate(182.591 122.796)"/><path class="q" d="M308.054,264.532a2.118,2.118,0,0,0-2.118-2.117H255.494a2.117,2.117,0,0,0-2.117,2.117v25.829a2.117,2.117,0,0,0,2.117,2.117h50.443a2.118,2.118,0,0,0,2.118-2.117Z" transform="translate(-125.684 -81.009)"/><rect class="r" width="16.557" height="1.914" transform="translate(133.953 202.169) rotate(-35.179)"/><rect class="r" width="1.914" height="16.557" transform="translate(147.701 193.294) rotate(-48.204)"/><rect class="r" width="16.557" height="1.914" transform="translate(161.234 201.236) rotate(-38.075)"/><path class="s" d="M267.194,292.444a1.3,1.3,0,0,0-1.3-1.3h-3.1a1.307,1.307,0,0,0-1.307,1.3v3.1a1.306,1.306,0,0,0,1.307,1.3h3.1a1.3,1.3,0,0,0,1.3-1.3Z" transform="translate(-128.657 -91.549)"/><path class="t" d="M286.674,278.318a1.3,1.3,0,0,0-1.3-1.3h-3.1a1.306,1.306,0,0,0-1.307,1.3v3.1a1.307,1.307,0,0,0,1.307,1.3h3.1a1.3,1.3,0,0,0,1.3-1.3Z" transform="translate(-135.805 -86.365)"/><path class="u" d="M306.668,291.744a1.3,1.3,0,0,0-1.3-1.3h-3.1a1.306,1.306,0,0,0-1.307,1.3v3.1a1.306,1.306,0,0,0,1.307,1.3h3.1a1.3,1.3,0,0,0,1.3-1.3Z" transform="translate(-143.141 -91.292)"/><path class="v" d="M330.271,273.844a1.3,1.3,0,0,0-1.3-1.3h-3.1a1.306,1.306,0,0,0-1.307,1.3v3.1a1.306,1.306,0,0,0,1.307,1.3h3.1a1.3,1.3,0,0,0,1.3-1.3Z" transform="translate(-151.802 -84.724)"/><path class="w" d="M150.6,204.937a2.117,2.117,0,0,0-2.117-2.117H98.038a2.117,2.117,0,0,0-2.117,2.117v25.829a2.117,2.117,0,0,0,2.117,2.117h50.443a2.117,2.117,0,0,0,2.117-2.117Z" transform="translate(-67.909 -59.142)"/><path class="q" d="M96.47,262.842a2.117,2.117,0,0,1,2.117-2.117h21.606a2.117,2.117,0,0,1,2.117,2.117v25.829a2.117,2.117,0,0,1-2.117,2.117H98.587a2.117,2.117,0,0,1-2.117-2.117Z" transform="translate(-68.11 -80.388)"/><path class="q" d="M148.609,212.367a1.485,1.485,0,0,0-1.485-1.485h-39.77a1.485,1.485,0,0,0-1.485,1.485h0a1.486,1.486,0,0,0,1.485,1.486h39.77A1.486,1.486,0,0,0,148.609,212.367Z" transform="translate(-71.559 -62.1)"/><path class="h" d="M104.294,267.739a1.485,1.485,0,0,0-1.485-1.485H102.5a1.485,1.485,0,0,0-1.485,1.485h0a1.485,1.485,0,0,0,1.485,1.485h.307a1.485,1.485,0,0,0,1.485-1.485Z" transform="translate(-69.779 -82.417)"/><path class="h" d="M124.632,267.739a1.485,1.485,0,0,0-1.486-1.485H110.961a1.485,1.485,0,0,0-1.485,1.485h0a1.485,1.485,0,0,0,1.485,1.485h12.185A1.485,1.485,0,0,0,124.632,267.739Z" transform="translate(-72.883 -82.417)"/><path class="h" d="M104.294,275.1a1.485,1.485,0,0,0-1.485-1.485H102.5a1.485,1.485,0,0,0-1.485,1.485h0a1.485,1.485,0,0,0,1.485,1.485h.307a1.485,1.485,0,0,0,1.485-1.485Z" transform="translate(-69.779 -85.119)"/><path class="h" d="M124.632,275.1a1.485,1.485,0,0,0-1.486-1.485H110.961a1.485,1.485,0,0,0-1.485,1.485h0a1.485,1.485,0,0,0,1.485,1.485h12.185A1.485,1.485,0,0,0,124.632,275.1Z" transform="translate(-72.883 -85.118)"/><path class="h" d="M110.91,290.374a1.486,1.486,0,0,0-1.486-1.485H102.6a1.485,1.485,0,0,0-1.485,1.485h0a1.486,1.486,0,0,0,1.485,1.486h6.828A1.487,1.487,0,0,0,110.91,290.374Z" transform="translate(-69.813 -90.723)"/><path class="h" d="M121.854,298.6a1.486,1.486,0,0,0-1.486-1.486H102.6a1.485,1.485,0,0,0-1.485,1.486h0a1.485,1.485,0,0,0,1.485,1.485h17.772a1.486,1.486,0,0,0,1.486-1.485Z" transform="translate(-69.813 -93.74)"/><path class="h" d="M128.553,290.374a1.485,1.485,0,0,0-1.484-1.485h-5.3a1.485,1.485,0,0,0-1.486,1.485h0a1.486,1.486,0,0,0,1.486,1.486h5.3a1.486,1.486,0,0,0,1.485-1.486Z" transform="translate(-76.849 -90.723)"/><path class="h" d="M104.294,282.572a1.485,1.485,0,0,0-1.485-1.485H102.5a1.485,1.485,0,0,0-1.485,1.485h0a1.485,1.485,0,0,0,1.485,1.485h.307a1.485,1.485,0,0,0,1.485-1.485Z" transform="translate(-69.779 -87.86)"/><path class="h" d="M124.632,282.572a1.485,1.485,0,0,0-1.486-1.485H110.961a1.485,1.485,0,0,0-1.485,1.485h0a1.485,1.485,0,0,0,1.485,1.485h12.185A1.485,1.485,0,0,0,124.632,282.572Z" transform="translate(-72.883 -87.86)"/><path class="h" d="M197.337,205.2a1.861,1.861,0,0,0-1.861-1.861h-.182a1.861,1.861,0,0,0-1.861,1.861h0a1.861,1.861,0,0,0,1.861,1.861h.182A1.861,1.861,0,0,0,197.337,205.2Z" transform="translate(-103.688 -59.332)"/><path class="h" d="M231.2,205.2a1.861,1.861,0,0,0-1.861-1.861H208.8a1.861,1.861,0,0,0-1.861,1.861h0a1.861,1.861,0,0,0,1.861,1.861h20.538A1.861,1.861,0,0,0,231.2,205.2Z" transform="translate(-108.643 -59.332)"/><path class="h" d="M197.337,214.426a1.861,1.861,0,0,0-1.861-1.861h-.182a1.861,1.861,0,0,0-1.861,1.861h0a1.861,1.861,0,0,0,1.861,1.861h.182A1.861,1.861,0,0,0,197.337,214.426Z" transform="translate(-103.688 -62.717)"/><path class="h" d="M231.2,214.426a1.861,1.861,0,0,0-1.861-1.861H208.8a1.861,1.861,0,0,0-1.861,1.861h0a1.861,1.861,0,0,0,1.861,1.861h20.538A1.861,1.861,0,0,0,231.2,214.426Z" transform="translate(-108.643 -62.717)"/><path class="h" d="M210.18,233.562a1.861,1.861,0,0,0-1.861-1.861H195.4a1.861,1.861,0,0,0-1.861,1.861h0a1.861,1.861,0,0,0,1.861,1.861h12.915a1.861,1.861,0,0,0,1.861-1.861Z" transform="translate(-103.729 -69.739)"/><path class="h" d="M226.753,243.866a1.861,1.861,0,0,0-1.861-1.861H195.407a1.862,1.862,0,0,0-1.861,1.861h0a1.862,1.862,0,0,0,1.861,1.861h29.482a1.861,1.861,0,0,0,1.861-1.861Z" transform="translate(-103.73 -73.52)"/><path class="h" d="M237.472,233.562a1.861,1.861,0,0,0-1.861-1.861H226.1a1.861,1.861,0,0,0-1.861,1.861h0a1.861,1.861,0,0,0,1.861,1.861h9.511a1.861,1.861,0,0,0,1.861-1.861Z" transform="translate(-114.991 -69.739)"/><path class="h" d="M197.337,223.786a1.861,1.861,0,0,0-1.861-1.861h-.182a1.861,1.861,0,0,0-1.861,1.861h0a1.861,1.861,0,0,0,1.861,1.861h.182A1.861,1.861,0,0,0,197.337,223.786Z" transform="translate(-103.688 -66.152)"/><path class="h" d="M231.2,223.786a1.861,1.861,0,0,0-1.861-1.861H208.8a1.861,1.861,0,0,0-1.861,1.861h0a1.861,1.861,0,0,0,1.861,1.861h20.538A1.861,1.861,0,0,0,231.2,223.786Z" transform="translate(-108.643 -66.152)"/><path class="h" d="M193.633,302.673a1.861,1.861,0,0,0,1.861,1.861h.182a1.861,1.861,0,0,0,1.861-1.861h0a1.861,1.861,0,0,0-1.861-1.861h-.182A1.861,1.861,0,0,0,193.633,302.673Z" transform="translate(-103.762 -95.097)"/><path class="h" d="M147.98,302.673a1.861,1.861,0,0,0,1.861,1.861h20.538a1.861,1.861,0,0,0,1.861-1.861h0a1.861,1.861,0,0,0-1.861-1.861H149.841A1.861,1.861,0,0,0,147.98,302.673Z" transform="translate(-87.011 -95.097)"/><path class="h" d="M193.633,293.451a1.861,1.861,0,0,0,1.861,1.861h.182a1.861,1.861,0,0,0,1.861-1.861h0a1.861,1.861,0,0,0-1.861-1.861h-.182A1.861,1.861,0,0,0,193.633,293.451Z" transform="translate(-103.762 -91.714)"/><path class="h" d="M147.98,293.451a1.861,1.861,0,0,0,1.861,1.861h20.538a1.861,1.861,0,0,0,1.861-1.861h0a1.861,1.861,0,0,0-1.861-1.861H149.841A1.861,1.861,0,0,0,147.98,293.451Z" transform="translate(-87.011 -91.714)"/><path class="h" d="M173.414,274.31a1.861,1.861,0,0,0,1.861,1.861H188.19a1.861,1.861,0,0,0,1.861-1.861h0a1.861,1.861,0,0,0-1.861-1.861H175.275A1.861,1.861,0,0,0,173.414,274.31Z" transform="translate(-96.343 -84.69)"/><path class="h" d="M147.24,264.007a1.861,1.861,0,0,0,1.861,1.861h29.481a1.861,1.861,0,0,0,1.861-1.861h0a1.861,1.861,0,0,0-1.861-1.861H149.1A1.861,1.861,0,0,0,147.24,264.007Z" transform="translate(-86.739 -80.91)"/><path class="h" d="M148.089,274.31a1.861,1.861,0,0,0,1.861,1.861h9.513a1.861,1.861,0,0,0,1.861-1.861h0a1.861,1.861,0,0,0-1.861-1.861H149.95A1.861,1.861,0,0,0,148.089,274.31Z" transform="translate(-87.051 -84.69)"/><path class="h" d="M193.633,284.089a1.861,1.861,0,0,0,1.861,1.861h.182a1.861,1.861,0,0,0,1.861-1.861h0a1.861,1.861,0,0,0-1.861-1.861h-.182A1.861,1.861,0,0,0,193.633,284.089Z" transform="translate(-103.762 -88.278)"/><path class="h" d="M147.98,284.089a1.861,1.861,0,0,0,1.861,1.861h20.538a1.861,1.861,0,0,0,1.861-1.861h0a1.861,1.861,0,0,0-1.861-1.861H149.841A1.861,1.861,0,0,0,147.98,284.089Z" transform="translate(-87.011 -88.278)"/><path class="q" d="M127.216,221.051a1.486,1.486,0,0,0-1.486-1.485H107.353a1.485,1.485,0,0,0-1.485,1.485h0a1.485,1.485,0,0,0,1.485,1.485H125.73a1.486,1.486,0,0,0,1.486-1.485Z" transform="translate(-71.559 -65.286)"/><path class="q" d="M162.12,223.292a3.728,3.728,0,0,0-3.728-3.728h-12.1a3.728,3.728,0,0,0-3.728,3.728V224.8a3.728,3.728,0,0,0,3.728,3.728h12.1a3.728,3.728,0,0,0,3.728-3.728Z" transform="translate(-85.023 -65.285)"/><path class="q" d="M127.216,230.023a1.486,1.486,0,0,0-1.486-1.485H107.353a1.485,1.485,0,0,0-1.485,1.485h0a1.486,1.486,0,0,0,1.485,1.486H125.73A1.487,1.487,0,0,0,127.216,230.023Z" transform="translate(-71.559 -68.578)"/><path class="q" d="M148.609,238.706a1.485,1.485,0,0,0-1.485-1.485h-39.77a1.485,1.485,0,0,0-1.485,1.485h0a1.485,1.485,0,0,0,1.485,1.485h39.77a1.485,1.485,0,0,0,1.485-1.485Z" transform="translate(-71.559 -71.764)"/><path class="f" d="M231.575,279.316c-22.657-16.374-42.307-15.409-67.869.549l-2.113,27.061h72.383Z" transform="translate(-92.006 -82.859)"/><circle class="j" cx="2.237" cy="2.237" r="2.237" transform="translate(30.128 120.726)"/><circle class="j" cx="2.237" cy="2.237" r="2.237" transform="translate(37.504 120.726)"/><circle class="j" cx="2.237" cy="2.237" r="2.237" transform="translate(45 120.817)"/><circle class="x" cx="4.086" cy="4.086" r="4.086" transform="translate(53.804 99.362)"/><path class="m" d="M254.971,304.066a32.632,32.632,0,0,0-32.634-32.633h-3.9v32.633Z" transform="translate(-112.862 -84.318)"/><path class="o" d="M215.833,291.128a.86.86,0,0,1,1.709,0c.95,7.492,2.347,18.541,2.347,18.541h-6.4S214.889,298.618,215.833,291.128Z" transform="translate(-111.048 -91.265)"/><ellipse class="p" cx="4.192" cy="4.161" rx="4.192" ry="4.161" transform="translate(101.345 213.945)"/><path class="y" d="M156.63,306.623a6.131,6.131,0,0,1-6.132-6.133h0a43.219,43.219,0,1,1,86.438,0h0a6.131,6.131,0,0,1-6.133,6.132Zm70.682-10.864a1.384,1.384,0,0,1-1.372,1.567c-9.106,0-55.339,0-64.447,0a1.393,1.393,0,0,1-1.38-1.571,33.933,33.933,0,0,1,67.2,0Z" transform="translate(-87.935 -79.121)"/><ellipse class="l" cx="1.659" cy="1.635" rx="1.659" ry="1.635" transform="translate(104.044 189.389)"/><ellipse class="l" cx="1.659" cy="1.635" rx="1.659" ry="1.635" transform="translate(115.965 191.657)"/><ellipse class="l" cx="1.659" cy="1.635" rx="1.659" ry="1.635" transform="translate(127.266 199.653)"/><ellipse class="l" cx="1.659" cy="1.635" rx="1.659" ry="1.635" transform="translate(133.552 212.197)"/><ellipse class="l" cx="1.659" cy="1.635" rx="1.659" ry="1.635" transform="translate(92.051 191.657)"/><ellipse class="l" cx="1.659" cy="1.635" rx="1.659" ry="1.635" transform="translate(80.75 199.653)"/><ellipse class="l" cx="1.659" cy="1.635" rx="1.659" ry="1.635" transform="translate(74.465 212.197)"/><g transform="translate(200.414 189.674)"><circle class="j" cx="9.36" cy="9.36" r="9.36"/><path class="z" d="M377.608,275.479a9.359,9.359,0,1,1-9.357,9.358,9.359,9.359,0,0,1,9.357-9.358Zm0,9.289a.068.068,0,1,1-.068.068A.068.068,0,0,1,377.608,284.768Z" transform="translate(-368.248 -275.476)"/></g><circle class="x" cx="7.155" cy="7.155" r="7.155" transform="translate(33.595 89.189)"/><path class="aa" d="M396.447,214.841a12.345,12.345,0,0,1,1.546.655l4.121-3.137,4.458,4.457L403.4,220.9a12.476,12.476,0,0,1,.669,1.583l5.077.687v6.3l-4.985.623a12.262,12.262,0,0,1-.7,1.742l3.006,3.948-4.457,4.457-3.824-2.975a12.291,12.291,0,0,1-1.889.8l-.641,4.741h-6.3l-.587-4.7a12.281,12.281,0,0,1-1.983-.829l-3.742,2.849-4.457-4.457,2.925-3.76a12.3,12.3,0,0,1-.781-1.957l-4.715-.637v-6.307l4.875-.606a12.21,12.21,0,0,1,.787-1.786l-2.984-3.918,4.457-4.457,4.022,3.127a12.382,12.382,0,0,1,1.65-.649l.682-5.048h6.3Z" transform="translate(-170.681 -61.658)"/><circle class="a" cx="6.065" cy="6.065" r="6.065" transform="translate(215.449 158.839)"/></g></svg>