<svg xmlns="http://www.w3.org/2000/svg" xmlns:xlink="http://www.w3.org/1999/xlink" width="4041.656" height="2964.875" viewBox="0 0 4041.656 2964.875"><defs><style>.a{fill:#5323d7;}.b{opacity:0.08;clip-path:url(#a);}.c{fill:#989898;}.d{opacity:0.2;}.e{fill:#7c7c7c;}</style><clipPath id="a"><rect class="a" width="3665.439" height="1716.787" transform="translate(0.456 -0.215)"/></clipPath></defs><g class="b" transform="translate(-0.342 1373.468) rotate(-22)"><g transform="translate(1605.594 805.121) rotate(-11)"><g transform="translate(-1625.661 -604.894)"><g transform="translate(0 0)"><path class="c" d="M106.733,58.387h0L274.7.107h0L0,6.437H0L108.529,58.414h0M267.51,0,108.478,54.94,5.389,6.517Z" transform="translate(715.037 1098.855)"/><path class="c" d="M0,175.748H0L1145.691,43.458h0L559.55,0h0L1.8,175.775h0Zm1131.319-132.5L14.32,172.488,559.55,0Z" transform="translate(15.646 879.191)"/><path class="c" d="M40.783,207.261h0L370.5,35.037h0L1.8.027,0,0,38.96,205.5l1.8.027M365.106,34.957,42.527,203.814,3.618,1.79Z" transform="translate(1159.54 922.622)"/><path class="c" d="M268.335,176.874h0L524.344.08h0L0,6.167H0L268.335,176.874h0M518.954,0,268.283,173.4,3.593,6.22Z" transform="translate(1312.486 692.975)"/><path class="c" d="M1.822,240.234h0l167.114-115.6h0L197.625.027,195.828,0,0,238.47H0ZM168.885,121.16,8.879,231.656,194.083,3.447Z" transform="translate(1875.204 863.254)"/><path class="c" d="M151.463,181.6l1.8.027L319.423,1.764A1.687,1.687,0,0,0,319.4.027L317.6,0,0,141.145H0l153.208,37.012h0M314.034,1.683,153.182,176.421,5.363,139.488Z" transform="translate(844.679 622.233)"/><path class="c" d="M3.619,152.158h0L227.475,108.6h0L49.86.027,48.063,0,0,150.368l1.8.027m222.06-43.582L5.363,148.711,51.682,1.79Z" transform="translate(2511.636 630.88)"/><path class="c" d="M362.9,292.744l1.8.027L531.013,1.764a1.688,1.688,0,0,0-.026-1.737L529.191,0,0,164.044H0L362.876,291.007h0M527.445,3.447l-164.57,287.56L5.415,165.861Z" transform="translate(2120.45 276.219)"/><path class="c" d="M302.057,330.449l1.8.027L503.735,1.764a1.689,1.689,0,0,0-.026-1.737L501.913,0,0,65.465H0L300.261,330.422h0M500.168,3.447,300.21,326.949,3.619,67.255Z" transform="translate(1564.314 538.441)"/><path class="c" d="M356.745,425.562h0l323.17-128.906h0L2.024.027.228,0A1.688,1.688,0,0,0,.254,1.737L356.745,425.562l1.8.027M676.3,294.865l-319.6,127.223L5.669,3.554Z" transform="translate(2178.072 708.558)"/><path class="c" d="M91.01,445.921l1.8.027L207.771,204.537a1.688,1.688,0,0,0-.026-1.737L1.8.027,0,0,89.188,444.157l1.8.027M204.152,202.747,90.881,437.236,1.822,1.764Z" transform="translate(2978.162 751.725)"/><path class="c" d="M549.367,621.808h0L543.759.027,541.963,0,0,514.644H0L547.571,621.781l1.8.027M542.015,3.474l5.5,614.833L3.593,514.7Z" transform="translate(2683.88 12.153)"/><path class="c" d="M1.822,272.06l1.8.027L276.2,1.764a1.688,1.688,0,0,0-.026-1.737L274.382,0,40.338,83.345h0L0,270.3l1.8.027ZM270.866,5.157,3.541,266.876,42.16,85.109Z" transform="translate(2178.3 438.263)"/><path d="M4.713,3.334A14.775,14.775,0,0,1,24.6,4.434a13.571,13.571,0,0,1,.285,19.237,14.688,14.688,0,0,1-19.866.507A14.15,14.15,0,0,1,0,13.683,13.271,13.271,0,0,1,4.713,3.334" transform="translate(806.099 1141.589)"/><path d="M4.713,3.334A14.775,14.775,0,0,1,24.6,4.434a13.571,13.571,0,0,1,.285,19.237,14.688,14.688,0,0,1-19.866.507A14.148,14.148,0,0,1,0,13.684,13.271,13.271,0,0,1,4.713,3.334" transform="translate(557.753 865.248)"/><path d="M4.713,3.334A14.775,14.775,0,0,1,24.6,4.433a13.57,13.57,0,0,1,.285,19.237,14.688,14.688,0,0,1-19.866.508A14.149,14.149,0,0,1,0,13.683,13.272,13.272,0,0,1,4.713,3.334" transform="translate(1145.691 908.732)"/><path d="M4.713,3.334a14.776,14.776,0,0,1,19.89,1.1,13.571,13.571,0,0,1,.285,19.237,14.688,14.688,0,0,1-19.866.508A14.149,14.149,0,0,1,0,13.683,13.272,13.272,0,0,1,4.713,3.334" transform="translate(0 1041.023)"/><path d="M4.713,3.334A14.775,14.775,0,0,1,24.6,4.433a13.57,13.57,0,0,1,.285,19.237,14.688,14.688,0,0,1-19.866.508A14.149,14.149,0,0,1,0,13.683,13.272,13.272,0,0,1,4.713,3.334" transform="translate(1145.691 908.732)"/><path d="M4.713,3.334A14.775,14.775,0,0,1,24.6,4.434a13.57,13.57,0,0,1,.285,19.237,14.687,14.687,0,0,1-19.866.507A14.149,14.149,0,0,1,0,13.684,13.272,13.272,0,0,1,4.713,3.334" transform="translate(1819.362 677.375)"/><path d="M4.713,3.334a14.775,14.775,0,0,1,19.89,1.1,13.57,13.57,0,0,1,.285,19.237,14.688,14.688,0,0,1-19.866.508A14.149,14.149,0,0,1,0,13.684,13.272,13.272,0,0,1,4.713,3.334" transform="translate(1565.149 854.196)"/><path d="M4.713,3.334A14.775,14.775,0,0,1,24.6,4.434a13.571,13.571,0,0,1,.285,19.237,14.688,14.688,0,0,1-19.866.508A14.149,14.149,0,0,1,0,13.684,13.272,13.272,0,0,1,4.713,3.334" transform="translate(1295.018 683.462)"/><path d="M4.713,3.334a14.776,14.776,0,0,1,19.89,1.1,13.571,13.571,0,0,1,.285,19.237,14.688,14.688,0,0,1-19.866.508A14.149,14.149,0,0,1,0,13.684,13.272,13.272,0,0,1,4.713,3.334" transform="translate(2055.361 847.601)"/><path d="M4.713,3.334A14.775,14.775,0,0,1,24.6,4.434a13.57,13.57,0,0,1,.285,19.237,14.687,14.687,0,0,1-19.866.507A14.148,14.148,0,0,1,0,13.684,13.272,13.272,0,0,1,4.713,3.334" transform="translate(829.059 751.199)"/><path d="M4.713,3.334a14.776,14.776,0,0,1,19.89,1.1,13.571,13.571,0,0,1,.285,19.237,14.688,14.688,0,0,1-19.866.508A14.15,14.15,0,0,1,0,13.684,13.273,13.273,0,0,1,4.713,3.334" transform="translate(1146.634 608.317)"/><path d="M4.713,3.334a14.775,14.775,0,0,1,19.89,1.1,13.571,13.571,0,0,1,.285,19.237,14.688,14.688,0,0,1-19.866.507A14.15,14.15,0,0,1,0,13.683,13.273,13.273,0,0,1,4.713,3.334" transform="translate(980.471 788.185)"/><path d="M4.713,3.334a14.776,14.776,0,0,1,19.89,1.1,13.57,13.57,0,0,1,.285,19.237,14.688,14.688,0,0,1-19.866.508A14.149,14.149,0,0,1,0,13.684,13.272,13.272,0,0,1,4.713,3.334" transform="translate(2723.466 725.566)"/><path d="M4.713,3.334a14.775,14.775,0,0,1,19.89,1.1,13.571,13.571,0,0,1,.285,19.237,14.688,14.688,0,0,1-19.866.508A14.149,14.149,0,0,1,0,13.684,13.272,13.272,0,0,1,4.713,3.334" transform="translate(2499.584 767.385)"/><path d="M4.713,3.334a14.775,14.775,0,0,1,19.89,1.1,13.571,13.571,0,0,1,.285,19.237,14.688,14.688,0,0,1-19.866.508A14.149,14.149,0,0,1,0,13.684,13.272,13.272,0,0,1,4.713,3.334" transform="translate(2893.23 910.436)"/><path d="M4.713,3.334a14.775,14.775,0,0,1,19.89,1.1,13.57,13.57,0,0,1,.285,19.237,14.688,14.688,0,0,1-19.866.508A14.149,14.149,0,0,1,0,13.684,13.272,13.272,0,0,1,4.713,3.334" transform="translate(2842.342 991.297)"/><path d="M4.713,3.334a14.775,14.775,0,0,1,19.89,1.1,13.571,13.571,0,0,1,.285,19.237,14.688,14.688,0,0,1-19.866.508A14.149,14.149,0,0,1,0,13.684,13.272,13.272,0,0,1,4.713,3.334" transform="translate(3053.5 1181.992)"/><path d="M4.713,3.334a14.775,14.775,0,0,1,19.89,1.1,13.571,13.571,0,0,1,.285,19.237,14.688,14.688,0,0,1-19.866.507A14.148,14.148,0,0,1,0,13.684,13.272,13.272,0,0,1,4.713,3.334" transform="translate(2513.809 1121.86)"/><path d="M4.713,3.334a14.776,14.776,0,0,1,19.89,1.1,13.57,13.57,0,0,1,.285,19.237,14.688,14.688,0,0,1-19.866.508A14.149,14.149,0,0,1,0,13.683,13.272,13.272,0,0,1,4.713,3.334" transform="translate(3170.235 938.871)"/><path d="M4.713,3.334a14.775,14.775,0,0,1,19.89,1.1,13.571,13.571,0,0,1,.285,19.237,14.688,14.688,0,0,1-19.866.507A14.149,14.149,0,0,1,0,13.684,13.272,13.272,0,0,1,4.713,3.334" transform="translate(1863.1 1084.388)"/><path d="M4.713,3.334a14.775,14.775,0,0,1,19.89,1.1,13.571,13.571,0,0,1,.285,19.237,14.688,14.688,0,0,1-19.866.507A14.149,14.149,0,0,1,0,13.684,13.272,13.272,0,0,1,4.713,3.334" transform="translate(2028.469 972.235)"/><path d="M4.713,3.334A14.775,14.775,0,0,1,24.6,4.434a13.57,13.57,0,0,1,.285,19.237,14.687,14.687,0,0,1-19.866.507A14.149,14.149,0,0,1,0,13.684,13.272,13.272,0,0,1,4.713,3.334" transform="translate(1181.007 1110.702)"/><path d="M4.713,3.334a14.776,14.776,0,0,1,19.89,1.1,13.571,13.571,0,0,1,.285,19.237,14.688,14.688,0,0,1-19.866.507A14.149,14.149,0,0,1,0,13.684,13.272,13.272,0,0,1,4.713,3.334" transform="translate(1512.568 941.979)"/><path d="M4.713,3.334A14.775,14.775,0,0,1,24.6,4.433a13.571,13.571,0,0,1,.285,19.237,14.688,14.688,0,0,1-19.866.507A14.148,14.148,0,0,1,0,13.683,13.272,13.272,0,0,1,4.713,3.334" transform="translate(1660.132 1083.103)"/><path d="M4.713,3.334a14.776,14.776,0,0,1,19.89,1.1,13.57,13.57,0,0,1,.285,19.237,14.688,14.688,0,0,1-19.866.507A14.149,14.149,0,0,1,0,13.684,13.272,13.272,0,0,1,4.713,3.334" transform="translate(975.832 1081.599)"/><path d="M4.713,3.334A14.775,14.775,0,0,1,24.6,4.434a13.571,13.571,0,0,1,.285,19.237,14.688,14.688,0,0,1-19.866.507A14.149,14.149,0,0,1,0,13.684,13.272,13.272,0,0,1,4.713,3.334" transform="translate(708.348 1089.772)"/><path d="M4.713,3.334a14.775,14.775,0,0,1,19.89,1.1,13.571,13.571,0,0,1,.285,19.237,14.688,14.688,0,0,1-19.866.508A14.149,14.149,0,0,1,0,13.684,13.272,13.272,0,0,1,4.713,3.334" transform="translate(2545.851 616.99)"/><path d="M4.713,3.334a14.775,14.775,0,0,1,19.89,1.1,13.571,13.571,0,0,1,.285,19.237,14.688,14.688,0,0,1-19.866.507A14.149,14.149,0,0,1,0,13.684,13.272,13.272,0,0,1,4.713,3.334" transform="translate(2634.021 264.039)"/><path d="M4.713,3.334A14.775,14.775,0,0,1,24.6,4.433a13.571,13.571,0,0,1,.285,19.237,14.688,14.688,0,0,1-19.866.507A14.149,14.149,0,0,1,0,13.684,13.272,13.272,0,0,1,4.713,3.334" transform="translate(2104.831 428.084)"/><path d="M4.713,3.334A14.775,14.775,0,0,1,24.6,4.434a13.571,13.571,0,0,1,.285,19.237,14.688,14.688,0,0,1-19.866.508A14.149,14.149,0,0,1,0,13.684,13.272,13.272,0,0,1,4.713,3.334" transform="translate(2467.706 555.047)"/><path d="M4.713,3.334a14.776,14.776,0,0,1,19.89,1.1,13.571,13.571,0,0,1,.285,19.237,14.688,14.688,0,0,1-19.866.507A14.149,14.149,0,0,1,0,13.684,13.273,13.273,0,0,1,4.713,3.334" transform="translate(2050.607 526.262)"/><path d="M4.713,3.334a14.775,14.775,0,0,1,19.89,1.1,13.571,13.571,0,0,1,.285,19.237,14.688,14.688,0,0,1-19.866.507A14.149,14.149,0,0,1,0,13.684,13.272,13.272,0,0,1,4.713,3.334" transform="translate(1548.694 591.726)"/><path d="M4.713,3.334a14.776,14.776,0,0,1,19.89,1.1,13.57,13.57,0,0,1,.285,19.237,14.688,14.688,0,0,1-19.866.507A14.149,14.149,0,0,1,0,13.684,13.272,13.272,0,0,1,4.713,3.334" transform="translate(1848.929 854.947)"/><path d="M4.713,3.334a14.775,14.775,0,0,1,19.89,1.1,13.571,13.571,0,0,1,.285,19.237,14.688,14.688,0,0,1-19.866.508A14.149,14.149,0,0,1,0,13.684,13.272,13.272,0,0,1,4.713,3.334" transform="translate(2164.477 696.406)"/><path d="M4.713,3.334a14.775,14.775,0,0,1,19.89,1.1,13.57,13.57,0,0,1,.285,19.237,14.687,14.687,0,0,1-19.866.507A14.149,14.149,0,0,1,0,13.684,13.272,13.272,0,0,1,4.713,3.334" transform="translate(2962.542 739.545)"/><path d="M4.713,3.334a14.775,14.775,0,0,1,19.89,1.1,13.571,13.571,0,0,1,.285,19.237,14.688,14.688,0,0,1-19.866.508A14.149,14.149,0,0,1,0,13.684,13.272,13.272,0,0,1,4.713,3.334" transform="translate(3215.78 618.281)"/><path d="M4.713,3.334a14.775,14.775,0,0,1,19.89,1.1,13.571,13.571,0,0,1,.285,19.237,14.688,14.688,0,0,1-19.866.507A14.149,14.149,0,0,1,0,13.684,13.272,13.272,0,0,1,4.713,3.334" transform="translate(3212.021 0)"/><path d="M4.713,3.334A14.775,14.775,0,0,1,24.6,4.434a13.571,13.571,0,0,1,.285,19.237,14.688,14.688,0,0,1-19.866.507A14.149,14.149,0,0,1,0,13.684,13.272,13.272,0,0,1,4.713,3.334" transform="translate(2668.262 514.618)"/><path d="M4.713,3.334a14.775,14.775,0,0,1,19.89,1.1,13.571,13.571,0,0,1,.285,19.237,14.688,14.688,0,0,1-19.866.507A14.149,14.149,0,0,1,0,13.684,13.272,13.272,0,0,1,4.713,3.334" transform="translate(2204.814 509.455)"/><path d="M4.713,3.334A14.775,14.775,0,0,1,24.6,4.434a13.571,13.571,0,0,1,.285,19.237,14.688,14.688,0,0,1-19.866.507A14.149,14.149,0,0,1,0,13.684,13.272,13.272,0,0,1,4.713,3.334" transform="translate(2438.858 426.11)"/><path d="M4.713,3.334a14.775,14.775,0,0,1,19.89,1.1,13.571,13.571,0,0,1,.285,19.237,14.688,14.688,0,0,1-19.866.508A14.149,14.149,0,0,1,0,13.684,13.272,13.272,0,0,1,4.713,3.334" transform="translate(2164.477 696.406)"/><path class="c" d="M474.332,255.393l1.8.027a1.688,1.688,0,0,0-.026-1.737L276.98,26.7l-1.8-.027L0,0H0L474.332,255.393h0M275.209,28.409,468.866,250.1,7.211,1.844Z" transform="translate(1206.861 843.443)"/><path class="c" d="M802.8,590.231l1.8.027a1.688,1.688,0,0,0-.026-1.737L366.645,123.543h0L2.025.027.228,0A1.688,1.688,0,0,0,.254,1.737L801,590.2h0M363.052,123.489l428.81,456.16L7.491,5.318Z" transform="translate(1483.296 484.615)"/><path class="c" d="M140.183,613.365l1.8.027,69.129-304.61h0L1.8.027,0,0,140.132,609.891l1.8.027Zm69.129-304.61L140.081,606.417,3.721,8.738Z" transform="translate(2768.717 312.723)"/><path d="M4.713,3.334A14.775,14.775,0,0,1,24.6,4.434a13.571,13.571,0,0,1,.285,19.237,14.688,14.688,0,0,1-19.866.507A14.149,14.149,0,0,1,0,13.683,13.272,13.272,0,0,1,4.713,3.334" transform="translate(1468.221 857.963)"/><path d="M4.713,3.334a14.775,14.775,0,0,1,19.89,1.1,13.571,13.571,0,0,1,.285,19.237,14.688,14.688,0,0,1-19.866.508A14.149,14.149,0,0,1,0,13.684,13.272,13.272,0,0,1,4.713,3.334" transform="translate(1191.241 831.264)"/><path d="M4.713,3.334a14.775,14.775,0,0,1,19.89,1.1,13.571,13.571,0,0,1,.285,19.237,14.688,14.688,0,0,1-19.866.507A14.148,14.148,0,0,1,0,13.684,13.272,13.272,0,0,1,4.713,3.334" transform="translate(1832.499 594.215)"/><path d="M4.713,3.334a14.775,14.775,0,0,1,19.89,1.1,13.57,13.57,0,0,1,.285,19.237,14.688,14.688,0,0,1-19.866.508A14.149,14.149,0,0,1,0,13.684,13.272,13.272,0,0,1,4.713,3.334" transform="translate(2270.447 1060.93)"/><path d="M4.713,3.334a14.776,14.776,0,0,1,19.89,1.1,13.57,13.57,0,0,1,.285,19.237,14.688,14.688,0,0,1-19.866.507A14.149,14.149,0,0,1,0,13.684,13.273,13.273,0,0,1,4.713,3.334" transform="translate(1467.905 472.436)"/><path d="M4.713,3.334a14.776,14.776,0,0,1,19.89,1.1,13.571,13.571,0,0,1,.285,19.237,14.688,14.688,0,0,1-19.866.507A14.149,14.149,0,0,1,0,13.684,13.272,13.272,0,0,1,4.713,3.334" transform="translate(2964.182 607.589)"/><path d="M4.713,3.334a14.775,14.775,0,0,1,19.89,1.1,13.571,13.571,0,0,1,.285,19.237,14.688,14.688,0,0,1-19.866.508A14.149,14.149,0,0,1,0,13.684,13.272,13.272,0,0,1,4.713,3.334" transform="translate(2753.098 300.544)"/><g class="d" transform="translate(1206.861 843.443)"><g transform="translate(0 0)"><path class="e" d="M278.827,30.2,0,0,474.332,255.393Z" transform="translate(0 0)"/></g></g><g class="d" transform="translate(2772.362 316.251)"><g transform="translate(0 0)"><path class="e" d="M0,0,136.514,608.1l70.951-302.846Z"/></g></g><g class="d" transform="translate(2180.097 440.026)"><g transform="translate(0 0)"><path class="e" d="M274.407,0,0,268.559,40.338,81.608Z" transform="translate(0)"/></g></g><path d="M5.313,0a5.5,5.5,0,0,1,5.466,5.291,5.116,5.116,0,0,1-5.312,5.131A5.5,5.5,0,0,1,0,5.131,5.116,5.116,0,0,1,5.313,0" transform="translate(3083.424 456.414)"/><path d="M9.036.006a9.3,9.3,0,0,1,8.411,6.015,8.333,8.333,0,0,1-2.753,9.531,9.191,9.191,0,0,1-10.286.475A8.828,8.828,0,0,1,.157,6.82,8.6,8.6,0,0,1,9.036.006" transform="translate(3186.691 525.728)"/><path d="M10.655.2a9.029,9.029,0,0,1,7.253,9.72,8.591,8.591,0,0,1-9.279,7.427A9.155,9.155,0,0,1,.005,8.728a8.3,8.3,0,0,1,3.129-6.8A9.037,9.037,0,0,1,10.655.2" transform="translate(3100.718 529.484)"/><path d="M7.311.008a7.428,7.428,0,0,1,6.7,4.95,6.664,6.664,0,0,1-2.427,7.613,7.374,7.374,0,0,1-8.3.092A7.024,7.024,0,0,1,.2,5.112,6.9,6.9,0,0,1,7.311.008" transform="translate(3067.719 379.793)"/><path d="M12.549.2A10.82,10.82,0,0,1,21.43,12.342,10.389,10.389,0,0,1,9.21,20.685,10.84,10.84,0,0,1,.1,8.694,9.991,9.991,0,0,1,4.39,1.849,10.881,10.881,0,0,1,12.549.2" transform="translate(3135.264 443.205)"/><path d="M7.311.008a7.428,7.428,0,0,1,6.7,4.95,6.664,6.664,0,0,1-2.427,7.613,7.374,7.374,0,0,1-8.3.092A7.024,7.024,0,0,1,.2,5.112,6.9,6.9,0,0,1,7.311.008" transform="translate(3203.968 605.841)"/><path d="M7.311.008a7.428,7.428,0,0,1,6.7,4.95,6.664,6.664,0,0,1-2.427,7.613,7.374,7.374,0,0,1-8.3.092A7.024,7.024,0,0,1,.2,5.112,6.9,6.9,0,0,1,7.311.008" transform="translate(3236.949 771.307)"/><path d="M9.036.006a9.3,9.3,0,0,1,8.411,6.015,8.333,8.333,0,0,1-2.753,9.531,9.19,9.19,0,0,1-10.286.475A8.827,8.827,0,0,1,.157,6.82,8.6,8.6,0,0,1,9.036.006" transform="translate(3205.33 935.84)"/><path d="M5.618.014A5.559,5.559,0,0,1,10.57,3.921,5,5,0,0,1,8.444,9.592a5.556,5.556,0,0,1-6.3-.314A5.22,5.22,0,0,1,.28,3.407,5.206,5.206,0,0,1,5.618.014" transform="translate(3082.36 1012.097)"/><path d="M10.776,0a11.162,11.162,0,0,1,10.112,7.09A10,10,0,0,1,17.8,18.532a11.007,11.007,0,0,1-12.256.846A10.631,10.631,0,0,1,.126,8.529,10.3,10.3,0,0,1,10.776,0" transform="translate(3135.661 957.406)"/><path d="M10.655.2a9.029,9.029,0,0,1,7.253,9.72,8.591,8.591,0,0,1-9.279,7.427A9.155,9.155,0,0,1,.005,8.728a8.3,8.3,0,0,1,3.129-6.8A9.037,9.037,0,0,1,10.655.2" transform="translate(3055.05 1084.512)"/><path d="M7.311.008a7.428,7.428,0,0,1,6.7,4.95,6.664,6.664,0,0,1-2.427,7.613,7.374,7.374,0,0,1-8.3.092A7.024,7.024,0,0,1,.2,5.112,6.9,6.9,0,0,1,7.311.008" transform="translate(2910.163 1019.984)"/><path d="M5.618.014A5.558,5.558,0,0,1,10.57,3.921,5,5,0,0,1,8.444,9.592a5.556,5.556,0,0,1-6.3-.314A5.22,5.22,0,0,1,.281,3.407,5.205,5.205,0,0,1,5.618.014" transform="translate(2845.002 871.373)"/><path d="M12.425.174A10.864,10.864,0,0,1,21.513,11.7a10.3,10.3,0,0,1-11.08,9.13A10.985,10.985,0,0,1,0,10.409a9.957,9.957,0,0,1,3.644-8A10.814,10.814,0,0,1,12.425.174" transform="translate(2960.938 791.421)"/><path d="M12.549.2A10.82,10.82,0,0,1,21.43,12.342,10.389,10.389,0,0,1,9.21,20.685,10.84,10.84,0,0,1,.1,8.694,9.991,9.991,0,0,1,4.39,1.849,10.881,10.881,0,0,1,12.549.2" transform="translate(2979.986 873.303)"/><path d="M8.887.249a7.194,7.194,0,0,1,5.412,7.9,6.885,6.885,0,0,1-7.463,5.727A7.326,7.326,0,0,1,.008,7.063a6.642,6.642,0,0,1,2.61-5.607A7.258,7.258,0,0,1,8.887.249" transform="translate(2857.8 985.992)"/><path d="M7.311.008a7.428,7.428,0,0,1,6.7,4.95,6.664,6.664,0,0,1-2.427,7.613,7.374,7.374,0,0,1-8.3.092A7.024,7.024,0,0,1,.2,5.112,6.9,6.9,0,0,1,7.311.008" transform="translate(2692.516 997.642)"/><path d="M19.588.125C29.447,1.272,36.725,9.889,35.865,19.4s-9.536,16.32-19.4,15.237S-.736,24.977.059,15.464a16.609,16.609,0,0,1,6.333-11.7A17.985,17.985,0,0,1,19.588.125" transform="translate(2561.674 874.198)"/><path d="M5.618.014A5.559,5.559,0,0,1,10.57,3.921,5,5,0,0,1,8.444,9.592a5.556,5.556,0,0,1-6.3-.314A5.22,5.22,0,0,1,.28,3.407,5.206,5.206,0,0,1,5.618.014" transform="translate(2555.418 721.189)"/><path d="M5.313,0a5.5,5.5,0,0,1,5.466,5.291,5.116,5.116,0,0,1-5.312,5.131A5.5,5.5,0,0,1,0,5.131,5.116,5.116,0,0,1,5.313,0" transform="translate(2673.876 695.176)"/><path d="M5.618.014A5.559,5.559,0,0,1,10.57,3.921,5,5,0,0,1,8.444,9.592a5.556,5.556,0,0,1-6.3-.314A5.22,5.22,0,0,1,.28,3.407,5.206,5.206,0,0,1,5.618.014" transform="translate(2717.2 852.105)"/><path d="M10.655.2a9.029,9.029,0,0,1,7.253,9.72,8.591,8.591,0,0,1-9.279,7.427A9.155,9.155,0,0,1,.005,8.728a8.3,8.3,0,0,1,3.129-6.8A9.036,9.036,0,0,1,10.655.2" transform="translate(2655.092 1000.412)"/><path d="M9.036.006A9.3,9.3,0,0,1,17.447,6.02a8.333,8.333,0,0,1-2.753,9.531,9.191,9.191,0,0,1-10.286.475A8.827,8.827,0,0,1,.157,6.82,8.6,8.6,0,0,1,9.036.006" transform="translate(2515.592 1052.343)"/><path d="M10.776,0a11.162,11.162,0,0,1,10.112,7.09A10,10,0,0,1,17.8,18.532a11.007,11.007,0,0,1-12.256.847A10.631,10.631,0,0,1,.126,8.529,10.3,10.3,0,0,1,10.776,0" transform="translate(2433.088 934.79)"/><path d="M16.064.151C23.918,1.275,29.545,8.3,28.655,15.869S20.7,28.71,12.832,27.664-.731,19.65.076,12.069A13.3,13.3,0,0,1,5.388,2.8,14.433,14.433,0,0,1,16.064.151" transform="translate(2476.843 971.842)"/><path d="M14.2.153A12.7,12.7,0,0,1,25.114,13.466,12,12,0,0,1,12.241,24.3,12.815,12.815,0,0,1,0,12.1,11.614,11.614,0,0,1,4.16,2.887,12.592,12.592,0,0,1,14.2.153" transform="translate(2376.345 1093.614)"/><path d="M12.425.174A10.864,10.864,0,0,1,21.513,11.7a10.3,10.3,0,0,1-11.08,9.13A10.985,10.985,0,0,1,0,10.409a9.957,9.957,0,0,1,3.644-8A10.815,10.815,0,0,1,12.425.174" transform="translate(2381.656 1090.173)"/><path d="M10.776,0a11.162,11.162,0,0,1,10.112,7.09A10,10,0,0,1,17.8,18.532a11.006,11.006,0,0,1-12.256.846A10.631,10.631,0,0,1,.126,8.529,10.3,10.3,0,0,1,10.776,0" transform="translate(2361.412 945.88)"/><path d="M9.036.006a9.3,9.3,0,0,1,8.411,6.015,8.332,8.332,0,0,1-2.753,9.531,9.191,9.191,0,0,1-10.286.475A8.827,8.827,0,0,1,.157,6.82,8.6,8.6,0,0,1,9.036.006" transform="translate(2315.826 781.935)"/><path d="M17.825.137c8.857,1.135,15.311,8.956,14.436,17.5S23.512,32.214,14.648,31.149-.735,22.313.067,13.765A14.953,14.953,0,0,1,5.89,3.277,16.209,16.209,0,0,1,17.825.137" transform="translate(2290.07 606.156)"/><path d="M5.313,0a5.5,5.5,0,0,1,5.466,5.291,5.116,5.116,0,0,1-5.312,5.131A5.5,5.5,0,0,1,0,5.131,5.116,5.116,0,0,1,5.313,0" transform="translate(2323.7 455.523)"/><path d="M8.887.249a7.194,7.194,0,0,1,5.412,7.9,6.885,6.885,0,0,1-7.463,5.727A7.326,7.326,0,0,1,.008,7.063a6.642,6.642,0,0,1,2.61-5.607A7.258,7.258,0,0,1,8.887.249" transform="translate(2449.875 363.431)"/><path d="M3.542,0A3.664,3.664,0,0,1,7.186,3.528a3.411,3.411,0,0,1-3.541,3.42A3.664,3.664,0,0,1,0,3.421,3.411,3.411,0,0,1,3.542,0" transform="translate(2539.886 502.13)"/><path d="M19.588.125C29.447,1.272,36.725,9.889,35.865,19.4s-9.535,16.32-19.4,15.237S-.736,24.977.059,15.464a16.609,16.609,0,0,1,6.333-11.7A17.985,17.985,0,0,1,19.588.125" transform="translate(2374.249 466.783)"/><path d="M17.825.136c8.857,1.135,15.311,8.957,14.436,17.5S23.512,32.214,14.648,31.149-.735,22.313.067,13.765A14.954,14.954,0,0,1,5.89,3.277,16.21,16.21,0,0,1,17.825.137" transform="translate(2239.82 487.32)"/><path d="M21.352.116c10.858,1.158,18.96,10.57,18.114,21.042S29.146,39.214,18.283,38.113-.734,27.643.052,17.165A18.264,18.264,0,0,1,6.9,4.242,19.761,19.761,0,0,1,21.352.116" transform="translate(2184.688 641.128)"/><path d="M14.28,0A14.893,14.893,0,0,1,27.774,9.262,13.341,13.341,0,0,1,23.991,24.5,14.637,14.637,0,0,1,7.808,26.067,14.238,14.238,0,0,1,.089,11.949,13.709,13.709,0,0,1,14.28,0" transform="translate(2154.783 812.612)"/><path d="M21.587.144A20.357,20.357,0,0,1,38.741,14.328a18.314,18.314,0,0,1-6.9,20.245,20.255,20.255,0,0,1-22.207.651A19.444,19.444,0,0,1,.262,15.456C1.943,5.608,11.256-1.078,21.587.144" transform="translate(2026.503 890.554)"/><path d="M19.588.125c9.859,1.146,17.137,9.763,16.277,19.27s-9.535,16.32-19.4,15.237S-.736,24.977.059,15.464a16.609,16.609,0,0,1,6.334-11.7A17.985,17.985,0,0,1,19.588.125" transform="translate(1983.359 752.711)"/><path d="M19.588.125c9.858,1.146,17.137,9.763,16.277,19.27s-9.536,16.32-19.4,15.237S-.736,24.977.059,15.464a16.609,16.609,0,0,1,6.333-11.7A17.985,17.985,0,0,1,19.588.125" transform="translate(2045.69 595.609)"/><path d="M12.526,0A13.028,13.028,0,0,1,24.331,8.176,11.671,11.671,0,0,1,20.9,21.514,12.822,12.822,0,0,1,6.675,22.725,12.435,12.435,0,0,1,.1,10.239,12.006,12.006,0,0,1,12.526,0" transform="translate(2133.105 685.492)"/><path d="M17.825.136c8.857,1.135,15.311,8.957,14.436,17.5S23.512,32.214,14.648,31.149-.735,22.313.067,13.765A14.953,14.953,0,0,1,5.89,3.277,16.209,16.209,0,0,1,17.825.137" transform="translate(2112.154 841.42)"/><path d="M5.313,0a5.5,5.5,0,0,1,5.466,5.291,5.116,5.116,0,0,1-5.312,5.131A5.5,5.5,0,0,1,0,5.131,5.116,5.116,0,0,1,5.313,0" transform="translate(1978.519 917.526)"/><path d="M16.064.151C23.917,1.275,29.544,8.3,28.655,15.869S20.7,28.71,12.832,27.664-.731,19.65.076,12.069A13.3,13.3,0,0,1,5.388,2.8,14.433,14.433,0,0,1,16.064.151" transform="translate(1854.72 802.815)"/><path d="M10.655.2a9.029,9.029,0,0,1,7.253,9.72,8.591,8.591,0,0,1-9.279,7.427A9.154,9.154,0,0,1,.005,8.728a8.3,8.3,0,0,1,3.129-6.8A9.037,9.037,0,0,1,10.655.2" transform="translate(1955.235 797.232)"/><path d="M12.548.2A10.82,10.82,0,0,1,21.43,12.342,10.389,10.389,0,0,1,9.21,20.685,10.84,10.84,0,0,1,.1,8.694,9.991,9.991,0,0,1,4.39,1.849,10.881,10.881,0,0,1,12.548.2" transform="translate(2016.424 933.632)"/><path d="M5.338.027A3.512,3.512,0,0,1,6.988,4.1,3.471,3.471,0,0,1,3.3,6.445,3.681,3.681,0,0,1,0,3.421,3.411,3.411,0,0,1,3.541,0" transform="translate(1932.406 1080.053)"/><path d="M9.036.006A9.3,9.3,0,0,1,17.447,6.02a8.333,8.333,0,0,1-2.752,9.531,9.191,9.191,0,0,1-10.286.475A8.827,8.827,0,0,1,.157,6.82,8.6,8.6,0,0,1,9.036.006" transform="translate(1780.738 1154.281)"/><path d="M12.548.2A10.82,10.82,0,0,1,21.43,12.342,10.389,10.389,0,0,1,9.21,20.685,10.84,10.84,0,0,1,.1,8.694,9.992,9.992,0,0,1,4.39,1.849,10.881,10.881,0,0,1,12.548.2" transform="translate(1675.933 1105.695)"/><path d="M16.064.151C23.918,1.276,29.544,8.3,28.655,15.869S20.7,28.71,12.832,27.664-.731,19.65.076,12.069A13.3,13.3,0,0,1,5.388,2.8,14.433,14.433,0,0,1,16.064.151" transform="translate(1592.168 1022.926)"/><path d="M19.588.125C29.446,1.272,36.725,9.889,35.865,19.4s-9.536,16.32-19.4,15.237S-.736,24.977.059,15.464a16.608,16.608,0,0,1,6.334-11.7A17.985,17.985,0,0,1,19.588.125" transform="translate(1510.985 872.449)"/><path d="M17.825.137c8.857,1.135,15.311,8.956,14.436,17.5S23.512,32.214,14.648,31.149-.735,22.313.067,13.765A14.953,14.953,0,0,1,5.89,3.277,16.21,16.21,0,0,1,17.825.137" transform="translate(1546.363 716.646)"/><path d="M9.036.006a9.3,9.3,0,0,1,8.411,6.015,8.333,8.333,0,0,1-2.753,9.531,9.191,9.191,0,0,1-10.286.475A8.827,8.827,0,0,1,.157,6.82,8.6,8.6,0,0,1,9.036.006" transform="translate(1684.698 732.598)"/><path d="M9.036.006a9.3,9.3,0,0,1,8.411,6.015,8.333,8.333,0,0,1-2.753,9.531,9.191,9.191,0,0,1-10.286.475A8.828,8.828,0,0,1,.157,6.82,8.6,8.6,0,0,1,9.036.006" transform="translate(1681.75 897.53)"/><path d="M14.3.17A12.655,12.655,0,0,1,25.046,14.106,12.093,12.093,0,0,1,11.019,24.177,12.672,12.672,0,0,1,.088,10.378a11.644,11.644,0,0,1,4.8-8.057A12.657,12.657,0,0,1,14.3.17" transform="translate(1583.199 1026.22)"/><path d="M19.588.125C29.446,1.272,36.725,9.889,35.864,19.4s-9.536,16.32-19.4,15.237S-.736,24.977.059,15.464a16.608,16.608,0,0,1,6.333-11.7A17.985,17.985,0,0,1,19.588.125" transform="translate(1420.09 1041.282)"/><path d="M10.655.2a9.029,9.029,0,0,1,7.253,9.72,8.591,8.591,0,0,1-9.279,7.427A9.155,9.155,0,0,1,.005,8.728a8.3,8.3,0,0,1,3.129-6.8A9.037,9.037,0,0,1,10.655.2" transform="translate(1277.046 966.004)"/><path d="M21.587.144A20.358,20.358,0,0,1,38.741,14.328a18.314,18.314,0,0,1-6.9,20.245,20.255,20.255,0,0,1-22.207.651A19.444,19.444,0,0,1,.262,15.456C1.943,5.608,11.256-1.078,21.587.144" transform="translate(1172.313 817.057)"/><path d="M5.381.513a3.512,3.512,0,0,1,1.65,4.072A3.471,3.471,0,0,1,3.34,6.931a3.681,3.681,0,0,1-3.3-3.024A3.328,3.328,0,0,1,1.558.554,3.692,3.692,0,0,1,5.381.513" transform="translate(1333.488 782.378)"/><path d="M14.3.17A12.656,12.656,0,0,1,25.046,14.106,12.093,12.093,0,0,1,11.019,24.177,12.672,12.672,0,0,1,.088,10.378a11.644,11.644,0,0,1,4.8-8.057A12.657,12.657,0,0,1,14.3.17" transform="translate(1407.073 896.828)"/><path d="M17.825.137c8.857,1.135,15.311,8.956,14.436,17.5S23.513,32.214,14.648,31.149-.735,22.313.067,13.765A14.952,14.952,0,0,1,5.89,3.277,16.209,16.209,0,0,1,17.825.137" transform="translate(1344.736 1048.805)"/><path d="M10.776,0A11.162,11.162,0,0,1,20.888,7.1,10,10,0,0,1,17.8,18.532a11.006,11.006,0,0,1-12.256.846A10.631,10.631,0,0,1,.126,8.529,10.3,10.3,0,0,1,10.776,0" transform="translate(1209.512 1144.068)"/><path d="M12.548.2A10.82,10.82,0,0,1,21.43,12.342,10.39,10.39,0,0,1,9.21,20.685,10.84,10.84,0,0,1,.1,8.694,9.992,9.992,0,0,1,4.39,1.849,10.882,10.882,0,0,1,12.548.2" transform="translate(1073.907 1081.103)"/><path d="M5.313,0a5.5,5.5,0,0,1,5.466,5.291,5.116,5.116,0,0,1-5.312,5.131A5.5,5.5,0,0,1,0,5.131,5.116,5.116,0,0,1,5.313,0" transform="translate(1207.634 1011.982)"/><path d="M19.588.125c9.859,1.146,17.137,9.763,16.277,19.27s-9.536,16.32-19.4,15.237S-.736,24.977.059,15.464a16.609,16.609,0,0,1,6.333-11.7A17.986,17.986,0,0,1,19.588.125" transform="translate(1063.403 1089.806)"/><path d="M19.588.125c9.859,1.146,17.137,9.763,16.277,19.27s-9.536,16.32-19.4,15.237S-.736,24.977.059,15.464a16.608,16.608,0,0,1,6.334-11.7A17.984,17.984,0,0,1,19.588.125" transform="translate(893.873 1042.131)"/><path d="M12.548.2A10.82,10.82,0,0,1,21.43,12.342,10.389,10.389,0,0,1,9.21,20.685,10.84,10.84,0,0,1,.1,8.694,9.992,9.992,0,0,1,4.39,1.849,10.882,10.882,0,0,1,12.548.2" transform="translate(787.737 918.813)"/><path d="M7.083,0a7.328,7.328,0,0,1,7.288,7.055A6.822,6.822,0,0,1,7.289,13.9,7.328,7.328,0,0,1,0,6.842,6.822,6.822,0,0,1,7.083,0" transform="translate(873.911 911.528)"/><path d="M10.656.2a9.029,9.029,0,0,1,7.253,9.72,8.591,8.591,0,0,1-9.279,7.427A9.155,9.155,0,0,1,.005,8.728a8.3,8.3,0,0,1,3.129-6.8A9.037,9.037,0,0,1,10.656.2" transform="translate(762.172 1005.227)"/><path d="M10.777,0A11.163,11.163,0,0,1,20.889,7.1,10,10,0,0,1,17.8,18.532a11.007,11.007,0,0,1-12.257.846A10.631,10.631,0,0,1,.127,8.529,10.3,10.3,0,0,1,10.777,0" transform="translate(591.445 1006.359)"/><path d="M10.8.234a8.983,8.983,0,0,1,7.01,10.343,8.686,8.686,0,0,1-10.4,6.611A9.008,9.008,0,0,1,.12,7.022,8.338,8.338,0,0,1,3.9,1.386,9.1,9.1,0,0,1,10.8.234" transform="translate(521.774 911.317)"/><path d="M21.352.116c10.858,1.158,18.96,10.57,18.114,21.042S29.145,39.214,18.283,38.113-.734,27.643.052,17.165A18.262,18.262,0,0,1,6.9,4.242,19.761,19.761,0,0,1,21.352.116" transform="translate(419.578 1029.896)"/><path d="M5.619.014A5.558,5.558,0,0,1,10.57,3.921,5,5,0,0,1,8.444,9.592a5.556,5.556,0,0,1-6.3-.314A5.221,5.221,0,0,1,.28,3.407,5.206,5.206,0,0,1,5.619.014" transform="translate(263.346 1060.433)"/><path d="M17.825.137c8.857,1.135,15.311,8.956,14.436,17.5S23.513,32.214,14.648,31.149-.735,22.313.067,13.765A14.955,14.955,0,0,1,5.89,3.277,16.209,16.209,0,0,1,17.825.137" transform="translate(203.713 1010.98)"/><path d="M14.3.17A12.655,12.655,0,0,1,25.046,14.106,12.093,12.093,0,0,1,11.019,24.177,12.672,12.672,0,0,1,.088,10.378a11.644,11.644,0,0,1,4.8-8.057A12.658,12.658,0,0,1,14.3.17" transform="translate(2676.998 785.489)"/><path d="M5.381.513a3.512,3.512,0,0,1,1.65,4.072A3.471,3.471,0,0,1,3.34,6.931a3.681,3.681,0,0,1-3.3-3.024A3.328,3.328,0,0,1,1.558.554,3.691,3.691,0,0,1,5.381.513" transform="translate(2644.268 640.389)"/><path d="M16.038,0a16.758,16.758,0,0,1,15.18,10.346,15.01,15.01,0,0,1-4.134,17.129A16.453,16.453,0,0,1,8.942,29.406,16.041,16.041,0,0,1,.076,13.659,15.413,15.413,0,0,1,16.038,0" transform="translate(2763.566 562.95)"/><path d="M12.548.2A10.82,10.82,0,0,1,21.43,12.342,10.389,10.389,0,0,1,9.21,20.685,10.84,10.84,0,0,1,.1,8.694,9.991,9.991,0,0,1,4.39,1.849,10.881,10.881,0,0,1,12.549.2" transform="translate(2832.191 716.547)"/></g></g></g></g></svg>