<svg xmlns="http://www.w3.org/2000/svg" width="123" height="56" viewBox="0 0 123 56"><defs><style>.a,.c{fill:none;}.a{stroke:#000;stroke-width:2px;}.b,.d{fill:#000;}.b{font-size:16px;font-family:Graphik-Medium, Graphik;font-weight:500;}.e{stroke:none;}</style></defs><g transform="translate(-1337.772 2.694)"><rect class="a" width="123" height="56" rx="7" transform="translate(1337.772 -2.694)"/><text class="b" transform="translate(1387.772 21.306)"><tspan x="0" y="0">Bank</tspan><tspan x="0" y="19">Transfer</tspan></text><g transform="translate(1351 13.221)"><path class="c" d="M0,0H24.17V24.17H0Z"/><path class="d" d="M2,20.153H22.17V22.17H2Zm2.017-8.068H6.034v7.06H4.017Zm5.042,0h2.017v7.06H9.059Zm4.034,0H15.11v7.06H13.094Zm5.042,0h2.017v7.06H18.136ZM2,7.043,12.085,2,22.17,7.043v4.034H2ZM4.017,8.289v.77H20.153v-.77L12.085,4.255Zm8.068-.238a1.009,1.009,0,1,1,1.009-1.008A1.008,1.008,0,0,1,12.085,8.051Z"/></g></g></svg>