<svg xmlns="http://www.w3.org/2000/svg" width="48" height="48" viewBox="0 0 48 48"><defs><style>.a{fill:#caf6d4;}.b{opacity:0.47;}</style></defs><g transform="translate(-15 -15)"><circle class="a" cx="24" cy="24" r="24" transform="translate(15 15)"/><g class="b"><path d="M35,41H28a1,1,0,0,1-1-1V28a1,1,0,0,1,1-1H46a1,1,0,0,1,1,1v5H45V29H29V39h6Z"/><path d="M44,43a12.8,12.8,0,0,1-7-1.712V43c0,1.657,3.134,3,7,3s7-1.343,7-3V41.288A12.8,12.8,0,0,1,44,43Z"/><path d="M44,48a12.8,12.8,0,0,1-7-1.712V48c0,1.657,3.134,3,7,3s7-1.343,7-3V46.288A12.8,12.8,0,0,1,44,48Z"/><path d="M35.909,35.672a6.988,6.988,0,0,1,3.066-1.916,1.995,1.995,0,1,0-3.066,1.916Z"/><path d="M44,41c3.866,0,7-1.343,7-3s-3.134-3-7-3-7,1.343-7,3S40.134,41,44,41Z"/></g></g></svg>