<svg xmlns="http://www.w3.org/2000/svg" width="123" height="56" viewBox="0 0 123 56"><defs><style>.a,.c{fill:none;}.a{stroke:#000;stroke-width:2px;}.b,.d{fill:#000;}.b{font-size:16px;font-family:Graphik-Medium, Graphik;font-weight:500;}.e{stroke:none;}</style></defs><g transform="translate(-0.49 -0.306)"><g class="a" transform="translate(0.49 0.306)"><rect class="e" width="123" height="56" rx="7"/><rect class="c" x="1" y="1" width="121" height="54" rx="6"/></g><text class="b" transform="translate(34.49 33.306)"><tspan x="0" y="0">Debit Card</tspan></text><g transform="translate(6.993 16.221)"><path class="c" d="M0,0H24.17V24.17H0Z"/><path class="d" d="M3.007,3H21.135a1.007,1.007,0,0,1,1.007,1.007V20.12a1.007,1.007,0,0,1-1.007,1.007H3.007A1.007,1.007,0,0,1,2,20.12V4.007A1.007,1.007,0,0,1,3.007,3Zm17.12,8.057H4.014v8.057H20.127Zm0-2.014V5.014H4.014V9.042Zm-6.042,6.042h4.028V17.1H14.085Z" transform="translate(0.014 0.021)"/></g></g></svg>