<svg xmlns="http://www.w3.org/2000/svg" width="806" height="706" viewBox="0 0 806 706"><defs><style>.a{fill:#f9ddd6;}.b{fill:#d7f9d6;}.c{fill:#d7d6f9;}.d{fill:#f9f2d6;}.e{fill:#0f0f0f;opacity:0.09;}.f,.g{fill:#080c15;}.f{font-size:20px;font-family:Rubik-Medium, Rubik;font-weight:500;}.g{font-size:16px;font-family:Rubik-Regular, Rubik;opacity:0.702;}</style></defs><g transform="translate(-541.323 -2243.5)"><path class="a" d="M0,0H433a0,0,0,0,1,0,0V290a0,0,0,0,1,0,0H48A48,48,0,0,1,0,242V0A0,0,0,0,1,0,0Z" transform="translate(541.323 2656.5)"/><path class="b" d="M48,0H406a0,0,0,0,1,0,0V291a0,0,0,0,1,0,0H0a0,0,0,0,1,0,0V48A48,48,0,0,1,48,0Z" transform="translate(587.324 2350.5)"/><path class="c" d="M0,0H358a0,0,0,0,1,0,0V245a48,48,0,0,1-48,48H0a0,0,0,0,1,0,0V0A0,0,0,0,1,0,0Z" transform="translate(989.324 2656.5)"/><path class="d" d="M0,0H291a48,48,0,0,1,48,48V398a0,0,0,0,1,0,0H0a0,0,0,0,1,0,0V0A0,0,0,0,1,0,0Z" transform="translate(1008.324 2243.5)"/><circle class="e" cx="27" cy="27" r="27" transform="translate(617.324 2382.5)"/><circle class="e" cx="27" cy="27" r="27" transform="translate(1016.324 2681.5)"/><circle class="e" cx="27" cy="27" r="27" transform="translate(1043.324 2275.5)"/><text class="f" transform="translate(640.324 2416.5)"><tspan x="0" y="0">1</tspan></text><text class="f" transform="translate(1037.324 2715.5)"><tspan x="0" y="0">4</tspan></text><text class="f" transform="translate(1064.324 2309.5)"><tspan x="0" y="0">2</tspan></text><text class="f" transform="translate(625.324 2479.5)"><tspan x="0" y="0">Lorem Ipsum</tspan></text><text class="f" transform="translate(1043.324 2382.5)"><tspan x="0" y="0">Lorem Ipsum</tspan></text><text class="f" transform="translate(1019.324 2778.5)"><tspan x="0" y="0">Lorem Ipsum</tspan></text><text class="g" transform="translate(625.324 2523.5)"><tspan x="0" y="0">Lorem Ipsum has been the industry&apos;s standard </tspan><tspan x="0" y="34">dummy text ever since the 1500s, when an </tspan><tspan x="0" y="68">unknown printer took.</tspan></text><text class="g" transform="translate(1043.324 2411.5)"><tspan x="0" y="15">Lorem Ipsum has been the </tspan><tspan x="0" y="49">industry&apos;s standard </tspan><tspan x="0" y="83">dummy text ever since the 1500s, </tspan><tspan x="0" y="117">when an </tspan><tspan x="0" y="151">unknown printer took.</tspan></text><g transform="translate(37)"><circle class="e" cx="27" cy="27" r="27" transform="translate(533.324 2681.5)"/><text class="f" transform="translate(554.324 2715.5)"><tspan x="0" y="0">3</tspan></text><text class="f" transform="translate(533.324 2778.5)"><tspan x="0" y="0">Lorem Ipsum</tspan></text><text class="g" transform="translate(533.324 2822.5)"><tspan x="0" y="0">Lorem Ipsum has been the industry&apos;s standard </tspan><tspan x="0" y="34">dummy text ever since the 1500s, when an </tspan><tspan x="0" y="68">unknown printer took.</tspan></text></g><text class="g" transform="translate(1019.324 2807.5)"><tspan x="0" y="15">Lorem Ipsum has been the industry&apos;s </tspan><tspan x="0" y="49">standard dummy text ever since the </tspan><tspan x="0" y="83">1500s, when an unknown printer </tspan><tspan x="0" y="117">took.</tspan></text></g></svg>