<svg xmlns="http://www.w3.org/2000/svg" width="123.121" height="56.05" viewBox="0 0 123.121 56.05"><defs><style>.a,.c{fill:none;}.a{stroke:#000;stroke-width:2px;}.b,.d{fill:#000;}.b{font-size:16px;font-family:Graphik-Medium, Graphik;font-weight:500;}.e{stroke:none;}</style></defs><g transform="translate(-1491 2.694)"><rect class="a" width="123.121" height="56.05" rx="7" transform="translate(1491 -2.694)"/><text class="b" transform="translate(1548.146 30.306)"><tspan x="0" y="0">USSD</tspan></text><g transform="translate(1513.976 13.221)"><path class="c" d="M0,0H24.17V24.17H0Z"/><path class="d" d="M3,17.146H21.17V19.17H3Zm0-6.073H6.028v3.036H3Zm5.047,0h3.028v3.036H8.047ZM3,5H6.028V8.036H3ZM13.094,5h3.028V8.036H13.094Zm5.047,0H21.17V8.036H18.142Zm-5.047,6.073h3.028v3.036H13.094Zm5.047,0H21.17v3.036H18.142ZM8.047,5h3.028V8.036H8.047Z"/></g></g></svg>